<?xml version="1.0" encoding="UTF-8" standalone="no"?>
<!-- Created with Inkscape (http://www.inkscape.org/) -->

<svg
   width="39.553516mm"
   height="26.570766mm"
   viewBox="0 0 39.553516 26.570766"
   version="1.1"
   id="svg1"
   xmlns:inkscape="http://www.inkscape.org/namespaces/inkscape"
   xmlns:sodipodi="http://sodipodi.sourceforge.net/DTD/sodipodi-0.dtd"
   xmlns="http://www.w3.org/2000/svg"
   xmlns:svg="http://www.w3.org/2000/svg">
  <sodipodi:namedview
     id="namedview1"
     pagecolor="#ffffff"
     bordercolor="#000000"
     borderopacity="0.25"
     inkscape:showpageshadow="2"
     inkscape:pageopacity="0.0"
     inkscape:pagecheckerboard="0"
     inkscape:deskcolor="#d1d1d1"
     inkscape:document-units="mm" />
  <defs
     id="defs1" />
  <g
     inkscape:label="Capa 1"
     inkscape:groupmode="layer"
     id="layer1"
     style="display:inline"
     transform="translate(-1.6969853,-1.3243931)">
    <path
       id="path7"
       d="m 22.178982,2.8628572 c 0.759883,3.547181 2.655005,6.08577 5.395383,7.8283158 2.799292,1.780152 6.491465,2.751385 10.771718,3.130056 l -0.02011,1.470801 c -4.285897,0.2552 -8.146698,1.302527 -11.048648,3.268698 -2.575983,1.745404 -4.403019,4.229877 -5.098344,7.545988 l -1.447446,-0.02604 C 20.166138,22.781397 18.454354,20.362224 15.941482,18.651816 13.050645,16.684233 9.0896202,15.629639 4.5732177,15.24049 L 4.5616467,13.772581 C 9.1349521,13.311359 12.920681,12.32524 15.696196,10.562585 18.395793,8.8484382 20.14356,6.3740552 20.731535,2.8946072 l 1.447447,-0.03175"
       style="display:inline;fill:#ed1c24;fill-opacity:1;fill-rule:nonzero;stroke:none;stroke-width:0.0352778" />
    <path
       id="path8"
       d="m 9.923728,16.776308 c 5.746856,1.591486 10.08821,5.742411 9.69698,9.271424 -0.07715,0.694972 -0.332634,1.313709 -0.736142,1.847426 C 18.023718,24.674544 13.791901,20.760474 8.4431549,18.495535 5.9804836,17.452653 3.6477404,16.914808 1.6969853,16.852931 3.760594,15.985027 6.7224106,15.889812 9.923728,16.776311"
       style="display:inline;fill:#00ab40;fill-opacity:1;fill-rule:evenodd;stroke:none;stroke-width:0.0352778" />
    <path
       id="path9"
       d="m 33.023724,16.776308 c -5.74675,1.591486 -10.088387,5.742411 -9.697156,9.271424 0.07726,0.694972 0.332669,1.313709 0.736247,1.847426 0.860778,-3.220614 5.0927,-7.134684 10.441517,-9.399623 2.462742,-1.042882 4.795309,-1.580727 6.74617,-1.642604 -2.06375,-0.867904 -5.025672,-0.963119 -8.226778,-0.07662"
       style="fill:#00ab40;fill-opacity:1;fill-rule:evenodd;stroke:none;stroke-width:0.0352778"
       inkscape:label="path9" />
    <path
       id="path10"
       d="m 9.923728,12.055435 c 5.746856,-1.5361 10.08821,-5.5420328 9.69698,-8.9477498 -0.07715,-0.670983 -0.332634,-1.267883 -0.736142,-1.783292 -0.860848,3.108325 -5.092665,6.88587 -10.4414111,9.0717168 -2.4626713,1.006545 -4.7954145,1.525517 -6.7461696,1.585312 2.0636087,0.837707 5.0254253,0.929605 8.2267427,0.07401"
       style="fill:#00ab40;fill-opacity:1;fill-rule:evenodd;stroke:none;stroke-width:0.0352778" />
    <path
       id="path11"
       d="m 33.023724,12.055435 c -5.74675,-1.5361 -10.088387,-5.5420328 -9.697156,-8.9477498 0.07726,-0.670983 0.332669,-1.267883 0.736247,-1.783292 0.860778,3.108325 5.0927,6.88587 10.441517,9.0717168 2.462742,1.006545 4.795309,1.525517 6.74617,1.585312 -2.06375,0.837707 -5.025672,0.929605 -8.226778,0.07401"
       style="display:inline;fill:#00ab40;fill-opacity:1;fill-rule:evenodd;stroke:none;stroke-width:0.0352778"
       inkscape:label="path11" />
    <path
       id="path14"
       d="m 26.784143,11.937184 c -2.374547,-1.510065 -4.182534,-3.5515898 -5.274028,-6.2348178 -0.969151,2.623608 -2.679171,4.6172608 -5.023732,6.1061248 -1.917841,1.218036 -4.258275,2.087845 -6.9622817,2.682346 2.7716337,0.616938 5.2350467,1.573988 7.2479257,2.944036 2.155825,1.46745 3.789751,3.397286 4.731385,5.87428 1.035756,-2.501124 2.748492,-4.474457 4.94912,-5.965508 1.932164,-1.309017 4.236861,-2.239716 6.782506,-2.824586 -2.439106,-0.570089 -4.612923,-1.413016 -6.450895,-2.581875"
       style="display:inline;fill:#ffffff;fill-opacity:1;fill-rule:nonzero;stroke:none;stroke-width:0.0352778" />
    <path
       id="path15"
       d="m 20.270313,15.195969 h 0.641491 c -0.04833,0.666574 -0.253577,1.180007 -0.614045,1.544355 -0.360504,0.363115 -0.847937,0.544619 -1.462264,0.544619 -0.366677,0 -0.697548,-0.05733 -0.994657,-0.171697 -0.296016,-0.114406 -0.560705,-0.28829 -0.793186,-0.524616 -0.257422,-0.254953 -0.452684,-0.549593 -0.584447,-0.882791 -0.132962,-0.334434 -0.198966,-0.692609 -0.198966,-1.076784 0,-0.385445 0.06463,-0.73974 0.192793,-1.061932 0.129258,-0.321909 0.323285,-0.61281 0.583036,-0.872701 0.23495,-0.235091 0.498581,-0.412856 0.790857,-0.533436 0.290901,-0.120579 0.604273,-0.180269 0.938706,-0.180269 0.267335,0 0.519818,0.04233 0.756003,0.125554 0.236185,0.08445 0.468807,0.213853 0.697407,0.387914 l 0.150495,-0.446334 h 0.538268 v 2.051473 h -0.574358 c -0.05831,-0.478578 -0.211278,-0.850371 -0.459986,-1.112767 -0.249838,-0.262361 -0.570654,-0.394123 -0.963542,-0.394123 -0.458894,0 -0.818269,0.182739 -1.079289,0.549557 -0.261126,0.366854 -0.391619,0.874113 -0.391619,1.523153 0,0.616691 0.129258,1.0928 0.38915,1.428609 0.259891,0.336938 0.625475,0.50479 1.09541,0.50479 0.366818,0 0.663928,-0.119345 0.891575,-0.35941 0.227401,-0.238654 0.377861,-0.586775 0.451168,-1.043164 z m 3.013921,-0.939835 h 0.71755 c 0.405342,0 0.696031,-0.0598 0.870303,-0.180376 0.175331,-0.120579 0.262467,-0.318311 0.262467,-0.595594 0,-0.277248 -0.07973,-0.475016 -0.240242,-0.595595 -0.160161,-0.12058 -0.431447,-0.180234 -0.813153,-0.180234 h -0.796925 z m 0,2.320078 h 0.826912 c 0.427919,0 0.732366,-0.06847 0.913694,-0.203941 0.183092,-0.136842 0.273756,-0.360644 0.273756,-0.673876 0,-0.313372 -0.09455,-0.537139 -0.282223,-0.669043 -0.187677,-0.132962 -0.512586,-0.198825 -0.971197,-0.198825 h -0.760942 z m -1.835149,0.559471 v -0.567056 h 0.291041 c 0.221192,0 0.359128,-0.02604 0.41275,-0.07828 0.05362,-0.05221 0.07938,-0.180234 0.07938,-0.384175 v -2.946788 c 0,-0.203976 -0.02575,-0.331999 -0.07938,-0.38421 -0.05362,-0.05225 -0.191558,-0.07828 -0.41275,-0.07828 h -0.291041 v -0.567058 h 2.888191 c 0.625475,0 1.090789,0.102094 1.393825,0.305929 0.303389,0.205034 0.455084,0.518548 0.455084,0.941176 0,0.291042 -0.08184,0.527262 -0.245887,0.705026 -0.162983,0.179 -0.417688,0.312138 -0.762352,0.399063 0.405341,0.0834 0.70873,0.231387 0.908755,0.445135 0.200378,0.21276 0.30092,0.497452 0.30092,0.851746 0,0.487398 -0.166511,0.835519 -0.498475,1.044434 -0.333375,0.20888 -0.89782,0.313338 -1.694745,0.313338 h -2.745316"
       style="display:inline;fill:#00ab40;fill-opacity:1;fill-rule:nonzero;stroke:none;stroke-width:0.0352778"
       inkscape:label="path15" />
  </g>
</svg>
