<?xml version="1.0" encoding="UTF-8" standalone="no"?>
<svg
   xmlns:dc="http://purl.org/dc/elements/1.1/"
   xmlns:cc="http://creativecommons.org/ns#"
   xmlns:rdf="http://www.w3.org/1999/02/22-rdf-syntax-ns#"
   xmlns:svg="http://www.w3.org/2000/svg"
   xmlns="http://www.w3.org/2000/svg"
   viewBox="0 0 909.33331 170.66667"
   height="170.66667"
   width="909.33331"
   xml:space="preserve"
   id="svg2"
   version="1.1"><metadata
     id="metadata8"><rdf:RDF><cc:Work
         rdf:about=""><dc:format>image/svg+xml</dc:format><dc:type
           rdf:resource="http://purl.org/dc/dcmitype/StillImage" /></cc:Work></rdf:RDF></metadata><defs
     id="defs6"><clipPath
       id="clipPath22"
       clipPathUnits="userSpaceOnUse"><path
         style="clip-rule:evenodd"
         id="path20"
         d="M 9.89453,1278.45 H 6813.04 V 2.85938 H 9.89453 Z" /></clipPath></defs><g
     transform="matrix(1.3333333,0,0,-1.3333333,0,170.66667)"
     id="g10"><g
       transform="scale(0.1)"
       id="g12"><path
         id="path14"
         style="fill:#ffffff;fill-opacity:1;fill-rule:evenodd;stroke:none"
         d="M 9.89453,1278.45 H 6813.04 V 2.85938 H 9.89453 V 1278.45" /><g
         id="g16"><g
           clip-path="url(#clipPath22)"
           id="g18"><path
             id="path24"
             style="fill:#00ab40;fill-opacity:1;fill-rule:evenodd;stroke:none"
             d="M -5495.32,179.867 C -1694.7,292.313 2139.66,44.9336 8672.68,78.668 v -89.9532 h -14168 V 179.867" /><path
             id="path26"
             style="fill:#ed1c24;fill-opacity:1;fill-rule:evenodd;stroke:none"
             d="M 8672.68,438.492 C 4872.05,550.934 1037.69,303.555 -5495.33,337.289 v -89.953 c 5790.768,42.5 9996.54,-119.141 14168.01,-56.223 v 247.379" /></g></g><path
         id="path28"
         style="fill:none;stroke:#231f20;stroke-width:2.16000009;stroke-linecap:butt;stroke-linejoin:miter;stroke-miterlimit:22.92560005;stroke-dasharray:none;stroke-opacity:1"
         d="M 9.89453,1278.45 H 6813.04 V 2.85938 H 9.89453 Z" /><path
         id="path30"
         style="fill:#ed1c24;fill-opacity:1;fill-rule:nonzero;stroke:none"
         d="m 1042.01,1174.85 c 21.54,-100.55 75.26,-172.51 152.94,-221.905 79.35,-50.461 184.01,-77.992 305.34,-88.726 l -0.57,-41.692 c -121.49,-7.234 -230.93,-36.922 -313.19,-92.656 -73.02,-49.476 -124.81,-119.902 -144.52,-213.902 l -41.03,0.738 c -16.027,93.523 -64.55,162.098 -135.781,210.582 -81.945,55.774 -194.226,85.668 -322.25,96.699 l -0.328,41.61 c 129.637,13.074 236.949,41.027 315.625,90.992 76.524,48.59 126.067,118.73 142.734,217.36 l 41.03,0.9" /><path
         id="path32"
         style="fill:#00ab40;fill-opacity:1;fill-rule:evenodd;stroke:none"
         d="M 694.617,780.453 C 857.52,735.34 980.582,617.676 969.492,517.641 c -2.187,-19.7 -9.429,-37.239 -20.867,-52.368 -24.402,91.293 -144.359,202.243 -295.977,266.446 -69.808,29.562 -135.933,44.808 -191.23,46.562 58.496,24.602 142.453,27.301 233.199,2.172" /><path
         id="path34"
         style="fill:#00ab40;fill-opacity:1;fill-rule:evenodd;stroke:none"
         d="m 1349.42,780.453 c -162.9,-45.113 -285.97,-162.777 -274.88,-262.812 2.19,-19.7 9.43,-37.239 20.87,-52.368 24.4,91.293 144.36,202.243 295.98,266.446 69.81,29.562 135.93,44.808 191.23,46.562 -58.5,24.602 -142.46,27.301 -233.2,2.172" /><path
         id="path36"
         style="fill:#00ab40;fill-opacity:1;fill-rule:evenodd;stroke:none"
         d="m 694.617,914.273 c 162.903,43.543 285.965,157.097 274.875,253.637 -2.187,19.02 -9.429,35.94 -20.867,50.55 C 924.223,1130.35 804.266,1023.27 652.648,961.309 582.84,932.777 516.715,918.066 461.418,916.371 519.914,892.625 603.871,890.02 694.617,914.273" /><path
         id="path38"
         style="fill:#00ab40;fill-opacity:1;fill-rule:evenodd;stroke:none"
         d="m 1349.42,914.273 c -162.9,43.543 -285.97,157.097 -274.88,253.637 2.19,19.02 9.43,35.94 20.87,50.55 24.4,-88.11 144.36,-195.19 295.98,-257.151 69.81,-28.532 135.93,-43.243 191.23,-44.938 -58.5,-23.746 -142.46,-26.351 -233.2,-2.098" /><path
         id="path40"
         style="fill:#ed1c24;fill-opacity:1;fill-rule:nonzero;stroke:none"
         d="m 2053.91,950.973 h 34 c -2.57,-35.321 -13.45,-62.532 -32.55,-81.84 -19.11,-19.242 -44.95,-28.86 -77.49,-28.86 -19.44,0 -36.97,3.032 -52.72,9.09 -15.68,6.063 -29.72,15.289 -42.04,27.809 -13.64,13.508 -23.98,29.125 -30.97,46.781 -7.05,17.727 -10.54,36.703 -10.54,57.067 0,20.43 3.43,39.21 10.21,56.27 6.85,17.07 17.14,32.49 30.9,46.26 12.46,12.45 26.43,21.87 41.91,28.27 15.42,6.39 32.03,9.55 49.76,9.55 14.16,0 27.53,-2.24 40.06,-6.66 12.52,-4.48 24.84,-11.33 36.96,-20.55 l 7.97,23.65 h 28.54 v -108.72 h -30.45 c -3.09,25.37 -11.2,45.07 -24.38,58.97 -13.24,13.9 -30.24,20.89 -51.06,20.89 -24.32,0 -43.36,-9.68 -57.2,-29.12 -13.84,-19.44 -20.75,-46.33 -20.75,-80.721 0,-32.683 6.85,-57.921 20.62,-75.711 13.77,-17.859 33.14,-26.753 58.05,-26.753 19.44,0 35.19,6.328 47.24,19.043 12.06,12.652 20.04,31.101 23.93,55.285 z m 130.07,30.047 c 0,-34.266 7.38,-60.95 22.2,-80.059 14.76,-19.113 35.26,-28.664 61.55,-28.664 26.22,0 46.65,9.551 61.41,28.594 14.69,19.043 22.07,45.734 22.07,80.129 0,34.27 -7.31,60.89 -22,79.86 -14.63,18.98 -35.12,28.47 -61.48,28.47 -26.29,0 -46.79,-9.49 -61.55,-28.47 -14.82,-18.97 -22.2,-45.59 -22.2,-79.86 z m -62.47,0 c 0,41.97 13.44,75.78 40.26,101.47 26.82,25.64 62.14,38.48 105.96,38.48 43.88,0 79.14,-12.84 105.89,-38.48 26.68,-25.69 40.06,-59.5 40.06,-101.47 0,-42.106 -13.38,-75.977 -40.2,-101.739 -26.75,-25.765 -62,-38.613 -105.75,-38.613 -43.82,0 -79.14,12.914 -105.96,38.68 -26.82,25.828 -40.26,59.699 -40.26,101.672 z m 545.6,-132.84 v 30.047 h 17.78 c 11.74,0 18.98,1.382 21.82,4.148 2.83,2.77 4.28,9.559 4.28,20.363 v 171.392 l -85.53,-225.95 h -26.16 l -80.45,230.43 V 902.738 c 0,-10.804 1.38,-17.593 4.21,-20.363 2.83,-2.766 10.15,-4.148 21.88,-4.148 h 15.81 V 848.18 h -123.74 v 30.047 h 14.29 c 11.67,0 18.99,1.382 21.81,4.148 2.84,2.77 4.22,9.559 4.22,20.363 V 1058.9 c 0,10.81 -1.38,17.6 -4.22,20.37 -2.82,2.76 -10.14,4.14 -21.81,4.14 h -14.29 v 30.05 h 123.35 l 59.1,-172.108 65.83,172.108 h 118.21 v -30.05 h -15.09 c -11.79,0 -19.17,-1.38 -22.07,-4.21 -2.9,-2.83 -4.35,-9.62 -4.35,-20.3 V 902.738 c 0,-10.672 1.45,-17.461 4.35,-20.293 2.9,-2.836 10.28,-4.218 22.07,-4.218 h 15.09 V 848.18 Z m 155.04,0 v 30.047 h 15.42 c 11.73,0 19.04,1.382 21.88,4.148 2.83,2.77 4.21,9.621 4.21,20.496 v 156.169 c 0,10.74 -1.38,17.52 -4.21,20.23 -2.84,2.76 -10.15,4.14 -21.88,4.14 h -15.42 v 30.05 h 260.94 V 1007.9 h -30.05 c -0.79,30.18 -5.73,50.35 -14.76,60.43 -9.1,10.08 -27.48,15.08 -55.22,15.08 h -63.65 v -81.44 h 15.02 c 16.61,0 27.48,2.9 32.68,8.64 5.14,5.73 8.37,18.91 9.62,39.6 l 30.05,0.19 V 917.367 l -30.05,0.199 c -1.18,22.731 -4.28,37.426 -9.48,44.016 -5.14,6.652 -15.95,9.949 -32.42,9.949 h -15.42 v -93.304 h 69.45 c 23.19,0 39.14,5.402 47.77,16.144 8.63,10.738 14.1,32.746 16.41,66.09 h 30.05 V 848.18 Z m 395.69,155.37 h 46.78 c 18.78,0 32.55,3.17 41.31,9.56 8.77,6.32 13.12,16.47 13.12,30.37 0,14.31 -4.15,24.52 -12.52,30.65 -8.37,6.19 -22.8,9.28 -43.23,9.28 h -45.46 z m 0,-100.745 c 0,-10.739 1.45,-17.465 4.34,-20.297 2.91,-2.832 10.28,-4.281 22.14,-4.281 h 18.59 V 848.18 h -142.33 v 30.047 H 3136 c 11.73,0 19.04,1.382 21.88,4.148 2.83,2.77 4.21,9.559 4.21,20.43 V 1058.9 c 0,10.81 -1.38,17.6 -4.21,20.37 -2.84,2.76 -10.15,4.14 -21.88,4.14 h -15.42 v 30.05 h 158.47 c 33.21,0 57.86,-5.2 74,-15.61 16.08,-10.48 24.12,-26.49 24.12,-48.1 0,-19.05 -6.4,-34.27 -19.24,-45.67 -12.79,-11.4 -31.7,-18.58 -56.74,-21.545 18.98,-2.832 32.22,-8.172 39.8,-16.078 7.51,-7.973 11.93,-21.68 13.24,-41.25 l 1.72,-23.789 c 0.66,-9.289 1.78,-15.285 3.49,-18.117 1.65,-2.836 4.42,-4.285 8.24,-4.285 7.64,0 11.73,14.496 12.25,43.492 0,0.527 0,0.918 0,1.117 h 25.11 c 0.26,-1.645 0.46,-3.426 0.53,-5.27 0.06,-1.843 0.06,-4.546 0.06,-8.039 0,-24.316 -4.42,-42.039 -13.24,-53.242 -8.76,-11.203 -22.74,-16.801 -41.78,-16.801 -15.68,0 -28,4.282 -36.9,12.915 -8.83,8.632 -13.57,20.558 -14.03,35.91 l -1.19,31.101 c -0.79,20.692 -5.34,34.793 -13.78,42.172 -8.42,7.445 -24.37,11.137 -47.9,11.137 h -18.97 z m 425.8,48.168 h 34 c -2.57,-35.321 -13.44,-62.532 -32.55,-81.84 -19.11,-19.242 -44.94,-28.86 -77.49,-28.86 -19.44,0 -36.97,3.032 -52.72,9.09 -15.68,6.063 -29.72,15.289 -42.04,27.809 -13.64,13.508 -23.98,29.125 -30.97,46.781 -7.05,17.727 -10.54,36.703 -10.54,57.067 0,20.43 3.43,39.21 10.21,56.27 6.86,17.07 17.14,32.49 30.91,46.26 12.45,12.45 26.42,21.87 41.91,28.27 15.41,6.39 32.02,9.55 49.75,9.55 14.16,0 27.54,-2.24 40.06,-6.66 12.52,-4.48 24.84,-11.33 36.96,-20.55 l 7.98,23.65 h 28.53 v -108.72 h -30.44 c -3.1,25.37 -11.2,45.07 -24.39,58.97 -13.24,13.9 -30.24,20.89 -51.06,20.89 -24.32,0 -43.36,-9.68 -57.2,-29.12 -13.83,-19.44 -20.75,-46.33 -20.75,-80.721 0,-32.683 6.85,-57.921 20.62,-75.711 13.77,-17.859 33.15,-26.753 58.05,-26.753 19.44,0 35.19,6.328 47.25,19.043 12.06,12.652 20.03,31.101 23.92,55.285 z m 63.25,-102.793 v 30.047 h 17 c 11.74,0 19.05,1.382 21.88,4.148 2.84,2.77 4.22,9.559 4.22,20.363 V 1058.9 c 0,10.81 -1.38,17.6 -4.22,20.37 -2.83,2.76 -10.14,4.14 -21.88,4.14 h -17 v 30.05 h 143.12 v -30.05 h -16.93 c -11.79,0 -19.11,-1.38 -21.94,-4.14 -2.84,-2.77 -4.22,-9.56 -4.22,-20.37 V 902.738 c 0,-10.804 1.38,-17.593 4.22,-20.363 2.83,-2.766 10.15,-4.148 21.94,-4.148 h 16.93 V 848.18 Z m 320.24,115.84 -34.39,91.72 -31.24,-91.72 z m -172.7,-115.84 v 30.047 h 8.23 c 10.02,0 17.53,1.781 22.47,5.336 4.94,3.558 9.23,10.343 12.85,20.363 l 73.93,209.534 h 55.62 l 79.13,-209.534 c 4.49,-12.192 8.64,-19.571 12.46,-22.008 3.76,-2.438 10.28,-3.691 19.57,-3.691 h 7.91 V 848.18 h -137.26 v 30.047 h 21.42 c 8.63,0 14.49,0.726 17.53,2.238 2.96,1.453 4.48,4.152 4.48,8.039 0,1.383 -0.2,3.035 -0.66,4.812 -0.47,1.778 -1.39,4.547 -2.77,8.102 l -11.4,31.367 h -87.44 l -11.4,-33.472 c -0.26,-0.922 -0.72,-2.243 -1.32,-4.086 -1.32,-3.688 -1.98,-6.325 -1.98,-7.907 0,-3.492 1.25,-5.867 3.76,-7.183 2.51,-1.254 8.44,-1.91 17.66,-1.91 h 20.49 V 848.18 Z m 299.35,265.28 h 142.33 v -30.05 h -18.58 c -11.87,0 -19.24,-1.38 -22.14,-4.21 -2.9,-2.83 -4.35,-9.62 -4.35,-20.3 V 878.227 h 49.48 c 17.66,0 30.84,1.515 39.61,4.546 8.76,3.032 15.02,8.106 18.91,15.153 3.75,6.855 6.52,15.156 8.3,24.91 1.78,9.82 2.7,21.547 2.7,35.187 v 4.809 h 30.44 V 848.18 h -246.7 v 30.047 h 15.42 c 11.73,0 19.04,1.382 21.87,4.148 2.84,2.77 4.22,9.559 4.22,20.363 V 1058.9 c 0,10.81 -1.38,17.6 -4.22,20.37 -2.83,2.76 -10.14,4.14 -21.87,4.14 h -15.42 z m 494.92,-112.67 h 38.02 c 21.48,0 36.9,3.16 46.13,9.55 9.29,6.39 13.9,16.87 13.9,31.57 0,14.69 -4.22,25.16 -12.72,31.55 -8.5,6.4 -22.86,9.56 -43.09,9.56 h -42.24 z m 0,-122.962 h 43.82 c 22.67,0 38.81,3.625 48.43,10.809 9.69,7.25 14.5,19.109 14.5,35.715 0,16.605 -5.01,28.464 -14.96,35.449 -9.95,7.051 -27.15,10.543 -51.46,10.543 h -40.33 z m -97.26,-29.648 v 30.047 h 15.42 c 11.73,0 19.04,1.382 21.88,4.148 2.83,2.77 4.22,9.559 4.22,20.363 V 1058.9 c 0,10.81 -1.39,17.6 -4.22,20.37 -2.84,2.76 -10.15,4.14 -21.88,4.14 h -15.42 v 30.05 h 153.07 c 33.15,0 57.79,-5.4 73.87,-16.21 16.07,-10.87 24.11,-27.47 24.11,-49.88 0,-15.42 -4.35,-27.94 -13.04,-37.36 -8.63,-9.49 -22.14,-16.537 -40.4,-21.151 21.49,-4.414 37.56,-12.257 48.17,-23.589 10.61,-11.266 15.95,-26.356 15.95,-45.137 0,-25.828 -8.83,-44.278 -26.42,-55.348 -17.66,-11.07 -47.58,-16.605 -89.82,-16.605 z m 289.4,0 v 30.047 h 17 c 11.73,0 19.05,1.382 21.88,4.148 2.83,2.77 4.22,9.559 4.22,20.363 V 1058.9 c 0,10.81 -1.39,17.6 -4.22,20.37 -2.83,2.76 -10.15,4.14 -21.88,4.14 h -17 v 30.05 h 143.12 v -30.05 h -16.93 c -11.8,0 -19.11,-1.38 -21.94,-4.14 -2.84,-2.77 -4.22,-9.56 -4.22,-20.37 V 902.738 c 0,-10.804 1.38,-17.593 4.22,-20.363 2.83,-2.766 10.14,-4.148 21.94,-4.148 h 16.93 V 848.18 Z m 259.42,152.61 h 38.03 c 21.48,0 36.89,3.16 46.12,9.55 9.29,6.39 13.9,16.87 13.9,31.57 0,14.69 -4.22,25.16 -12.72,31.55 -8.5,6.4 -22.86,9.56 -43.09,9.56 h -42.24 z m 0,-122.962 h 43.82 c 22.67,0 38.81,3.625 48.43,10.809 9.69,7.25 14.5,19.109 14.5,35.715 0,16.605 -5.01,28.464 -14.96,35.449 -9.95,7.051 -27.15,10.543 -51.46,10.543 h -40.33 z M 5003,848.18 v 30.047 h 15.42 c 11.73,0 19.04,1.382 21.88,4.148 2.83,2.77 4.22,9.559 4.22,20.363 V 1058.9 c 0,10.81 -1.39,17.6 -4.22,20.37 -2.84,2.76 -10.15,4.14 -21.88,4.14 H 5003 v 30.05 h 153.07 c 33.15,0 57.79,-5.4 73.87,-16.21 16.08,-10.87 24.11,-27.47 24.11,-49.88 0,-15.42 -4.34,-27.94 -13.04,-37.36 -8.63,-9.49 -22.14,-16.537 -40.39,-21.151 21.48,-4.414 37.56,-12.257 48.17,-23.589 10.6,-11.266 15.94,-26.356 15.94,-45.137 0,-25.828 -8.83,-44.278 -26.42,-55.348 -17.66,-11.07 -47.58,-16.605 -89.81,-16.605 z m 289.41,0 v 30.047 h 17 c 11.73,0 19.04,1.382 21.87,4.148 2.83,2.77 4.22,9.559 4.22,20.363 V 1058.9 c 0,10.81 -1.39,17.6 -4.22,20.37 -2.83,2.76 -10.14,4.14 -21.87,4.14 h -17 v 30.05 h 143.11 v -30.05 h -16.93 c -11.8,0 -19.11,-1.38 -21.94,-4.14 -2.83,-2.77 -4.22,-9.56 -4.22,-20.37 V 902.738 c 0,-10.804 1.39,-17.593 4.22,-20.363 2.83,-2.766 10.14,-4.148 21.94,-4.148 h 16.93 V 848.18 Z m 320.23,115.84 -34.39,91.72 -31.24,-91.72 z m -172.7,-115.84 v 30.047 h 8.24 c 10.01,0 17.52,1.781 22.46,5.336 4.95,3.558 9.23,10.343 12.86,20.363 l 73.93,209.534 h 55.61 l 79.14,-209.534 c 4.48,-12.192 8.63,-19.571 12.45,-22.008 3.76,-2.438 10.28,-3.691 19.57,-3.691 h 7.91 V 848.18 h -137.25 v 30.047 h 21.41 c 8.63,0 14.49,0.726 17.53,2.238 2.96,1.453 4.47,4.152 4.47,8.039 0,1.383 -0.19,3.035 -0.65,4.812 -0.46,1.778 -1.39,4.547 -2.77,8.102 l -11.4,31.367 h -87.44 l -11.4,-33.472 c -0.26,-0.922 -0.72,-2.243 -1.32,-4.086 -1.31,-3.688 -1.97,-6.325 -1.97,-7.907 0,-3.492 1.25,-5.867 3.75,-7.183 2.51,-1.254 8.44,-1.91 17.66,-1.91 h 20.5 V 848.18 Z m 568.98,0 h -55.87 l -131.92,216.13 V 902.738 c 0,-10.804 1.45,-17.593 4.28,-20.363 2.84,-2.766 10.08,-4.148 21.81,-4.148 h 18.19 V 848.18 h -130.47 v 30.047 h 18.58 c 11.73,0 18.98,1.382 21.81,4.148 2.84,2.77 4.29,9.559 4.29,20.363 V 1058.9 c 0,10.81 -1.45,17.6 -4.29,20.37 -2.83,2.76 -10.08,4.14 -21.81,4.14 h -17.06 v 30.05 h 113.53 L 5967.41,920.859 V 1058.9 c 0,10.81 -1.38,17.6 -4.21,20.37 -2.84,2.76 -10.09,4.14 -21.75,4.14 h -18.72 v 30.05 h 125.33 v -30.05 h -12.71 c -11.87,0 -19.18,-1.38 -22.08,-4.21 -2.89,-2.83 -4.35,-9.62 -4.35,-20.3 z m 122.9,132.84 c 0,-34.266 7.38,-60.95 22.2,-80.059 14.76,-19.113 35.25,-28.664 61.55,-28.664 26.22,0 46.65,9.551 61.41,28.594 14.69,19.043 22.07,45.734 22.07,80.129 0,34.27 -7.31,60.89 -22.01,79.86 -14.63,18.98 -35.12,28.47 -61.47,28.47 -26.3,0 -46.79,-9.49 -61.55,-28.47 -14.82,-18.97 -22.2,-45.59 -22.2,-79.86 z m -62.47,0 c 0,41.97 13.44,75.78 40.26,101.47 26.82,25.64 62.14,38.48 105.96,38.48 43.88,0 79.13,-12.84 105.88,-38.48 26.69,-25.69 40.07,-59.5 40.07,-101.47 0,-42.106 -13.38,-75.977 -40.2,-101.739 -26.75,-25.765 -62,-38.613 -105.75,-38.613 -43.82,0 -79.14,12.914 -105.96,38.68 -26.82,25.828 -40.26,59.699 -40.26,101.672" /><path
         id="path42"
         style="fill:#00a650;fill-opacity:1;fill-rule:nonzero;stroke:none"
         d="m 1833.15,552.188 v 59.16 h 16.66 c 2.28,-14.239 7.58,-25.129 15.88,-32.676 8.26,-7.547 19.01,-11.32 32.21,-11.32 9.54,0 16.84,1.605 21.85,4.808 5.06,3.203 7.59,7.793 7.59,13.844 0,5.445 -1.92,9.859 -5.8,13.242 -3.85,3.414 -10.04,6.086 -18.52,8.043 l -23.27,5.41 c -16.7,3.879 -28.7,9.149 -36.03,15.805 -7.33,6.625 -11,15.519 -11,26.629 0,13.488 4.7,24.308 14.1,32.426 9.36,8.152 21.93,12.211 37.66,12.211 7.76,0 15.06,-1.211 21.86,-3.598 6.76,-2.383 13.34,-6.086 19.75,-11.106 l 7.48,10.43 h 12.77 v -54.25 h -16.19 c -2.46,12.996 -7.58,23.102 -15.41,30.258 -7.8,7.156 -17.66,10.75 -29.48,10.75 -8.61,0 -15.3,-1.602 -20.04,-4.84 -4.73,-3.238 -7.08,-7.762 -7.08,-13.527 0,-4.875 1.67,-8.754 5.02,-11.676 3.34,-2.918 8.68,-5.231 16.05,-6.906 l 28.91,-6.653 c 15.3,-3.492 26.76,-8.937 34.34,-16.339 7.59,-7.407 11.36,-16.84 11.36,-28.301 0,-13.559 -4.98,-24.633 -14.91,-33.207 -9.97,-8.578 -22.86,-12.887 -38.73,-12.887 -7.97,0 -15.91,1.457 -23.78,4.379 -7.86,2.914 -15.8,7.402 -23.88,13.383 l -4.7,-13.492 z m 133.06,0 v 16.23 h 8.33 c 6.34,0 10.28,0.75 11.82,2.242 1.53,1.5 2.27,5.199 2.27,11.074 v 84.36 c 0,5.801 -0.74,9.469 -2.27,10.929 -1.54,1.493 -5.48,2.243 -11.82,2.243 h -8.33 v 16.23 h 140.96 v -57.023 h -16.23 c -0.43,16.3 -3.1,27.195 -7.98,32.64 -4.91,5.446 -14.84,8.153 -29.83,8.153 h -34.38 V 635.27 h 8.12 c 8.97,0 14.84,1.562 17.65,4.664 2.78,3.093 4.52,10.214 5.19,21.39 l 16.24,0.106 v -71.867 l -16.24,0.109 c -0.64,12.277 -2.31,20.215 -5.12,23.777 -2.77,3.594 -8.61,5.371 -17.51,5.371 h -8.33 v -50.402 h 37.52 c 12.53,0 21.14,2.922 25.8,8.723 4.66,5.804 7.62,17.691 8.87,35.703 h 16.23 v -60.656 z m 213.75,83.933 h 25.27 c 10.15,0 17.59,1.711 22.32,5.164 4.74,3.418 7.09,8.899 7.09,16.41 0,7.723 -2.25,13.239 -6.76,16.551 -4.53,3.344 -12.33,5.02 -23.36,5.02 h -24.56 z m 0,-54.426 c 0,-5.8 0.79,-9.433 2.35,-10.961 1.57,-1.531 5.55,-2.316 11.96,-2.316 h 10.04 v -16.23 h -76.89 v 16.23 h 8.33 c 6.34,0 10.29,0.75 11.82,2.242 1.53,1.5 2.28,5.164 2.28,11.035 v 84.328 c 0,5.836 -0.75,9.504 -2.28,11 -1.53,1.493 -5.48,2.243 -11.82,2.243 h -8.33 v 16.23 h 85.61 c 17.94,0 31.25,-2.812 39.97,-8.433 8.69,-5.665 13.03,-14.313 13.03,-25.989 0,-10.285 -3.45,-18.508 -10.39,-24.664 -6.91,-6.16 -17.12,-10.043 -30.65,-11.644 10.25,-1.532 17.4,-4.414 21.5,-8.684 4.06,-4.309 6.44,-11.711 7.15,-22.281 l 0.93,-12.852 c 0.36,-5.019 0.96,-8.258 1.88,-9.789 0.89,-1.531 2.39,-2.312 4.46,-2.312 4.13,0 6.33,7.828 6.62,23.492 0,0.285 0,0.496 0,0.605 h 13.56 c 0.14,-0.89 0.25,-1.851 0.28,-2.847 0.04,-0.996 0.04,-2.457 0.04,-4.34 0,-13.137 -2.39,-22.715 -7.16,-28.766 -4.73,-6.051 -12.28,-9.074 -22.56,-9.074 -8.48,0 -15.13,2.312 -19.94,6.973 -4.77,4.664 -7.33,11.109 -7.58,19.402 l -0.64,16.801 c -0.43,11.176 -2.88,18.793 -7.44,22.781 -4.55,4.023 -13.17,6.016 -25.88,6.016 h -10.25 z m 156.19,-29.507 -40.11,113.3 c -1.89,5.305 -4.02,8.899 -6.41,10.856 -2.38,1.961 -5.77,2.922 -10.07,2.922 h -6.2 v 16.23 h 74.93 v -16.23 h -11.11 c -4.02,0 -6.9,-0.5 -8.68,-1.496 -1.78,-1.032 -2.67,-2.598 -2.67,-4.77 0,-1.246 0.25,-2.777 0.68,-4.59 0.46,-1.781 1.1,-3.883 1.92,-6.23 l 26.55,-74.325 28.37,75.997 c 0.68,1.636 1.25,3.347 1.6,5.054 0.4,1.672 0.57,3.133 0.57,4.309 0,2.312 -0.89,3.879 -2.63,4.73 -1.78,0.891 -5.37,1.321 -10.78,1.321 h -9.51 v 16.23 h 68.17 v -16.23 h -4.27 c -5.06,0 -8.87,-0.891 -11.36,-2.672 -2.49,-1.742 -4.84,-5.59 -6.98,-11.496 l -42.32,-112.91 z m 97.36,0 v 16.23 h 9.18 c 6.34,0 10.29,0.75 11.82,2.242 1.53,1.5 2.28,5.164 2.28,11 v 84.363 c 0,5.836 -0.75,9.504 -2.28,11 -1.53,1.493 -5.48,2.243 -11.82,2.243 h -9.18 v 16.23 h 77.31 v -16.23 h -9.14 c -6.38,0 -10.33,-0.75 -11.86,-2.243 -1.53,-1.496 -2.28,-5.164 -2.28,-11 V 581.66 c 0,-5.836 0.75,-9.5 2.28,-11 1.53,-1.492 5.48,-2.242 11.86,-2.242 h 9.14 v -16.23 z m 205.06,55.527 h 18.37 c -1.39,-19.074 -7.26,-33.777 -17.58,-44.207 -10.32,-10.395 -24.28,-15.59 -41.86,-15.59 -10.5,0 -19.97,1.637 -28.48,4.91 -8.47,3.274 -16.05,8.258 -22.71,15.02 -7.37,7.297 -12.95,15.738 -16.73,25.277 -3.81,9.574 -5.7,19.824 -5.7,30.824 0,11.035 1.85,21.18 5.52,30.399 3.71,9.218 9.26,17.547 16.7,24.988 6.72,6.727 14.27,11.816 22.63,15.269 8.33,3.454 17.3,5.165 26.88,5.165 7.65,0 14.88,-1.211 21.64,-3.598 6.77,-2.418 13.42,-6.121 19.97,-11.106 l 4.31,12.782 h 15.41 v -58.735 h -16.44 c -1.68,13.703 -6.06,24.348 -13.18,31.86 -7.15,7.507 -16.33,11.281 -27.58,11.281 -13.14,0 -23.42,-5.231 -30.9,-15.734 -7.47,-10.5 -11.21,-25.024 -11.21,-43.606 0,-17.652 3.7,-31.285 11.14,-40.898 7.44,-9.645 17.91,-14.45 31.36,-14.45 10.5,0 19.01,3.414 25.52,10.286 6.52,6.836 10.82,16.8 12.92,29.863 z m 34.18,-55.527 v 16.23 h 9.18 c 6.34,0 10.28,0.75 11.82,2.242 1.53,1.5 2.28,5.164 2.28,11 v 84.363 c 0,5.836 -0.75,9.504 -2.28,11 -1.54,1.493 -5.48,2.243 -11.82,2.243 h -9.18 v 16.23 h 77.31 v -16.23 h -9.15 c -6.37,0 -10.32,-0.75 -11.85,-2.243 -1.53,-1.496 -2.28,-5.164 -2.28,-11 V 581.66 c 0,-5.836 0.75,-9.5 2.28,-11 1.53,-1.492 5.48,-2.242 11.85,-2.242 h 9.15 v -16.23 z m 124.12,71.761 c 0,-18.508 3.99,-32.926 11.99,-43.25 7.98,-10.32 19.05,-15.484 33.25,-15.484 14.17,0 25.2,5.164 33.18,15.449 7.93,10.289 11.92,24.703 11.92,43.285 0,18.508 -3.95,32.891 -11.89,43.141 -7.9,10.254 -18.97,15.379 -33.21,15.379 -14.2,0 -25.27,-5.125 -33.25,-15.379 -8,-10.25 -11.99,-24.633 -11.99,-43.141 z m -33.75,0 c 0,22.676 7.26,40.938 21.75,54.817 14.49,13.847 33.57,20.789 57.24,20.789 23.71,0 42.75,-6.942 57.2,-20.789 14.42,-13.879 21.64,-32.141 21.64,-54.817 0,-22.746 -7.22,-41.043 -21.71,-54.961 -14.45,-13.918 -33.49,-20.859 -57.13,-20.859 -23.67,0 -42.75,6.98 -57.24,20.898 -14.49,13.95 -21.75,32.25 -21.75,54.922 z m 174.92,-71.761 v 59.16 h 16.66 c 2.28,-14.239 7.58,-25.129 15.87,-32.676 8.26,-7.547 19.01,-11.32 32.22,-11.32 9.54,0 16.84,1.605 21.85,4.808 5.06,3.203 7.59,7.793 7.59,13.844 0,5.445 -1.93,9.859 -5.81,13.242 -3.84,3.414 -10.03,6.086 -18.51,8.043 l -23.27,5.41 c -16.7,3.879 -28.7,9.149 -36.03,15.805 -7.33,6.625 -11,15.519 -11,26.629 0,13.488 4.7,24.308 14.1,32.426 9.36,8.152 21.92,12.211 37.66,12.211 7.76,0 15.06,-1.211 21.85,-3.598 6.77,-2.383 13.35,-6.086 19.76,-11.106 l 7.47,10.43 h 12.78 v -54.25 h -16.19 c -2.46,12.996 -7.58,23.102 -15.41,30.258 -7.8,7.156 -17.66,10.75 -29.48,10.75 -8.61,0 -15.31,-1.602 -20.04,-4.84 -4.73,-3.238 -7.08,-7.762 -7.08,-13.527 0,-4.875 1.67,-8.754 5.02,-11.676 3.34,-2.918 8.68,-5.231 16.05,-6.906 l 28.9,-6.653 c 15.31,-3.492 26.77,-8.937 34.36,-16.339 7.57,-7.407 11.35,-16.84 11.35,-28.301 0,-13.559 -4.99,-24.633 -14.92,-33.207 -9.96,-8.578 -22.85,-12.887 -38.72,-12.887 -7.98,0 -15.92,1.457 -23.78,4.379 -7.87,2.914 -15.81,7.402 -23.89,13.383 l -4.69,-13.492 z m 199.69,0 v 16.23 h 8.33 c 6.34,0 10.29,0.75 11.82,2.242 1.53,1.5 2.28,5.199 2.28,11.074 v 84.36 c 0,5.801 -0.75,9.469 -2.28,10.929 -1.53,1.493 -5.48,2.243 -11.82,2.243 h -8.33 v 16.23 h 140.96 v -57.023 h -16.23 c -0.43,16.3 -3.1,27.195 -7.98,32.64 -4.91,5.446 -14.84,8.153 -29.82,8.153 h -34.39 V 635.27 h 8.12 c 8.97,0 14.84,1.562 17.65,4.664 2.78,3.093 4.52,10.214 5.2,21.39 l 16.23,0.106 v -71.867 l -16.23,0.109 c -0.64,12.277 -2.31,20.215 -5.13,23.777 -2.77,3.594 -8.61,5.371 -17.51,5.371 h -8.33 v -50.402 h 37.52 c 12.53,0 21.14,2.922 25.8,8.723 4.67,5.804 7.62,17.691 8.87,35.703 h 16.23 v -60.656 z m 165.7,0 v 59.16 h 16.66 c 2.28,-14.239 7.58,-25.129 15.87,-32.676 8.26,-7.547 19.01,-11.32 32.22,-11.32 9.53,0 16.84,1.605 21.85,4.808 5.06,3.203 7.58,7.793 7.58,13.844 0,5.445 -1.92,9.859 -5.8,13.242 -3.84,3.414 -10.04,6.086 -18.51,8.043 l -23.28,5.41 c -16.69,3.879 -28.69,9.149 -36.02,15.805 -7.33,6.625 -11,15.519 -11,26.629 0,13.488 4.7,24.308 14.1,32.426 9.36,8.152 21.92,12.211 37.66,12.211 7.76,0 15.06,-1.211 21.85,-3.598 6.77,-2.383 13.35,-6.086 19.76,-11.106 l 7.47,10.43 h 12.78 v -54.25 h -16.19 c -2.46,12.996 -7.59,23.102 -15.41,30.258 -7.8,7.156 -17.66,10.75 -29.48,10.75 -8.61,0 -15.31,-1.602 -20.04,-4.84 -4.73,-3.238 -7.09,-7.762 -7.09,-13.527 0,-4.875 1.68,-8.754 5.03,-11.676 3.34,-2.918 8.68,-5.231 16.05,-6.906 l 28.9,-6.653 c 15.31,-3.492 26.77,-8.937 34.35,-16.339 7.58,-7.407 11.36,-16.84 11.36,-28.301 0,-13.559 -4.99,-24.633 -14.92,-33.207 -9.97,-8.578 -22.85,-12.887 -38.72,-12.887 -7.98,0 -15.92,1.457 -23.78,4.379 -7.87,2.914 -15.8,7.402 -23.89,13.383 l -4.7,-13.492 z m 185.6,80.945 h 14.31 c 13.13,0 22.35,1.746 27.69,5.269 5.3,3.485 7.97,9.434 7.97,17.762 0,8.504 -2.56,14.52 -7.65,17.941 -5.13,3.45 -15.02,5.161 -29.69,5.161 h -12.63 z m 0,-51.473 c 0,-5.765 0.78,-9.43 2.35,-10.961 1.56,-1.531 5.55,-2.281 11.96,-2.281 h 10.04 v -16.23 h -76.89 v 16.23 h 8.33 c 6.33,0 10.28,0.75 11.81,2.242 1.53,1.5 2.28,5.164 2.28,11 v 84.363 c 0,5.836 -0.75,9.504 -2.28,11 -1.53,1.493 -5.48,2.243 -11.81,2.243 h -8.33 v 16.23 h 75.42 c 19.33,0 33.89,-3.312 43.75,-9.933 9.82,-6.583 14.74,-16.411 14.74,-29.399 0,-7.117 -1.36,-13.312 -4.02,-18.582 -2.67,-5.305 -6.74,-9.789 -12.14,-13.488 -3.88,-2.563 -9.33,-4.414 -16.27,-5.52 -6.94,-1.105 -16.66,-1.672 -29.08,-1.672 h -19.86 z m 93.76,-29.472 v 16.23 h 8.32 c 6.34,0 10.29,0.75 11.82,2.242 1.53,1.5 2.28,5.199 2.28,11.074 v 84.36 c 0,5.801 -0.75,9.469 -2.28,10.929 -1.53,1.493 -5.48,2.243 -11.82,2.243 h -8.32 v 16.23 h 140.95 v -57.023 h -16.23 c -0.42,16.3 -3.1,27.195 -7.97,32.64 -4.91,5.446 -14.84,8.153 -29.83,8.153 h -34.39 V 635.27 h 8.12 c 8.97,0 14.85,1.562 17.65,4.664 2.79,3.093 4.53,10.214 5.2,21.39 l 16.23,0.106 v -71.867 l -16.23,0.109 c -0.64,12.277 -2.31,20.215 -5.12,23.777 -2.78,3.594 -8.62,5.371 -17.52,5.371 h -8.33 v -50.402 h 37.52 c 12.53,0 21.14,2.922 25.81,8.723 4.66,5.804 7.62,17.691 8.86,35.703 h 16.23 v -60.656 z m 278.67,55.527 h 18.37 c -1.39,-19.074 -7.26,-33.777 -17.58,-44.207 -10.33,-10.395 -24.28,-15.59 -41.86,-15.59 -10.5,0 -19.98,1.637 -28.48,4.91 -8.47,3.274 -16.05,8.258 -22.71,15.02 -7.37,7.297 -12.96,15.738 -16.73,25.277 -3.81,9.574 -5.7,19.824 -5.7,30.824 0,11.035 1.86,21.18 5.52,30.399 3.7,9.218 9.26,17.547 16.69,24.988 6.73,6.727 14.28,11.816 22.65,15.269 8.32,3.454 17.29,5.165 26.87,5.165 7.65,0 14.88,-1.211 21.64,-3.598 6.76,-2.418 13.42,-6.121 19.97,-11.106 l 4.3,12.782 h 15.42 v -58.735 h -16.45 c -1.67,13.703 -6.05,24.348 -13.17,31.86 -7.15,7.507 -16.33,11.281 -27.58,11.281 -13.14,0 -23.43,-5.231 -30.9,-15.734 -7.48,-10.5 -11.21,-25.024 -11.21,-43.606 0,-17.652 3.7,-31.285 11.14,-40.898 7.44,-9.645 17.91,-14.45 31.36,-14.45 10.5,0 19.01,3.414 25.52,10.286 6.51,6.836 10.82,16.8 12.92,29.863 z m 34.18,-55.527 v 16.23 h 9.18 c 6.34,0 10.29,0.75 11.82,2.242 1.53,1.5 2.27,5.164 2.27,11 v 84.363 c 0,5.836 -0.74,9.504 -2.27,11 -1.53,1.493 -5.48,2.243 -11.82,2.243 h -9.18 v 16.23 h 77.31 v -16.23 h -9.15 c -6.37,0 -10.32,-0.75 -11.85,-2.243 -1.53,-1.496 -2.28,-5.164 -2.28,-11 V 581.66 c 0,-5.836 0.75,-9.5 2.28,-11 1.53,-1.492 5.48,-2.242 11.85,-2.242 h 9.15 v -16.23 z m 172.99,62.578 -18.58,49.55 -16.87,-49.55 z m -93.3,-62.578 v 16.23 h 4.46 c 5.41,0 9.46,0.961 12.13,2.883 2.67,1.922 4.99,5.59 6.94,11.004 l 39.94,113.191 h 30.04 l 42.75,-113.191 c 2.43,-6.59 4.67,-10.575 6.73,-11.891 2.03,-1.316 5.56,-1.996 10.57,-1.996 h 4.27 v -16.23 h -74.14 v 16.23 h 11.57 c 4.66,0 7.83,0.395 9.46,1.211 1.61,0.785 2.43,2.242 2.43,4.344 0,0.746 -0.11,1.636 -0.36,2.597 -0.25,0.961 -0.75,2.457 -1.49,4.379 l -6.17,16.946 h -47.23 l -6.16,-18.086 c -0.14,-0.496 -0.39,-1.207 -0.71,-2.204 -0.71,-1.996 -1.07,-3.421 -1.07,-4.273 0,-1.887 0.68,-3.168 2.03,-3.883 1.36,-0.672 4.56,-1.031 9.54,-1.031 h 11.07 v -16.23 z m 161.71,143.308 h 76.89 v -16.23 h -10.04 c -6.41,0 -10.39,-0.75 -11.96,-2.282 -1.56,-1.527 -2.34,-5.195 -2.34,-10.961 v -97.605 h 26.72 c 9.54,0 16.66,0.82 21.4,2.457 4.73,1.637 8.11,4.379 10.22,8.188 2.02,3.703 3.52,8.187 4.48,13.453 0.96,5.308 1.46,11.644 1.46,19.011 v 2.598 h 16.45 v -61.937 h -133.28 v 16.23 h 8.33 c 6.34,0 10.29,0.75 11.82,2.242 1.53,1.5 2.28,5.164 2.28,11 v 84.363 c 0,5.836 -0.75,9.504 -2.28,11 -1.53,1.493 -5.48,2.243 -11.82,2.243 h -8.33 z m 148.19,-143.308 v 16.23 h 8.32 c 6.34,0 10.29,0.75 11.83,2.242 1.52,1.5 2.27,5.199 2.27,11.074 v 84.36 c 0,5.801 -0.75,9.469 -2.27,10.929 -1.54,1.493 -5.49,2.243 -11.83,2.243 h -8.32 v 16.23 h 140.96 v -57.023 h -16.23 c -0.43,16.3 -3.1,27.195 -7.98,32.64 -4.91,5.446 -14.84,8.153 -29.83,8.153 h -34.38 V 635.27 h 8.11 c 8.97,0 14.85,1.562 17.66,4.664 2.78,3.093 4.52,10.214 5.19,21.39 l 16.24,0.106 v -71.867 l -16.24,0.109 c -0.64,12.277 -2.31,20.215 -5.12,23.777 -2.78,3.594 -8.61,5.371 -17.51,5.371 h -8.33 v -50.402 h 37.52 c 12.52,0 21.14,2.922 25.8,8.723 4.66,5.804 7.62,17.691 8.87,35.703 h 16.23 v -60.656 z m 165.7,0 v 59.16 h 16.65 c 2.28,-14.239 7.58,-25.129 15.88,-32.676 8.26,-7.547 19,-11.32 32.21,-11.32 9.54,0 16.84,1.605 21.86,4.808 5.05,3.203 7.58,7.793 7.58,13.844 0,5.445 -1.92,9.859 -5.8,13.242 -3.85,3.414 -10.04,6.086 -18.51,8.043 l -23.28,5.41 c -16.7,3.879 -28.69,9.149 -36.02,15.805 -7.34,6.625 -11,15.519 -11,26.629 0,13.488 4.7,24.308 14.09,32.426 9.37,8.152 21.93,12.211 37.66,12.211 7.76,0 15.06,-1.211 21.86,-3.598 6.76,-2.383 13.35,-6.086 19.75,-11.106 l 7.48,10.43 h 12.78 v -54.25 h -16.2 c -2.46,12.996 -7.58,23.102 -15.41,30.258 -7.8,7.156 -17.65,10.75 -29.47,10.75 -8.62,0 -15.31,-1.602 -20.04,-4.84 -4.74,-3.238 -7.09,-7.762 -7.09,-13.527 0,-4.875 1.68,-8.754 5.02,-11.676 3.35,-2.918 8.69,-5.231 16.05,-6.906 l 28.91,-6.653 c 15.31,-3.492 26.77,-8.937 34.35,-16.339 7.58,-7.407 11.35,-16.84 11.35,-28.301 0,-13.559 -4.98,-24.633 -14.91,-33.207 -9.97,-8.578 -22.86,-12.887 -38.73,-12.887 -7.97,0 -15.91,1.457 -23.78,4.379 -7.87,2.914 -15.8,7.402 -23.88,13.383 l -4.7,-13.492 z m 199.69,0 v 16.23 h 8.33 c 6.33,0 10.28,0.75 11.81,2.242 1.53,1.5 2.28,5.164 2.28,11 v 84.363 c 0,5.836 -0.75,9.504 -2.28,11 -1.53,1.493 -5.48,2.243 -11.81,2.243 h -8.33 v 16.23 h 81.33 c 25.03,0 43.96,-6.051 56.81,-18.152 12.85,-12.106 19.26,-29.903 19.26,-53.395 0,-23.492 -6.44,-41.324 -19.29,-53.5 -12.89,-12.176 -31.83,-18.261 -56.78,-18.261 z m 52.54,16.23 h 18.75 c 11.22,0 19.58,0.855 25.14,2.602 5.58,1.742 10.39,4.695 14.41,8.863 4.02,4.164 7.19,10.14 9.54,17.941 2.31,7.793 3.49,16.481 3.49,26.09 0,9.574 -1.18,18.223 -3.49,25.949 -2.35,7.723 -5.52,13.668 -9.54,17.836 -4.02,4.16 -8.83,7.117 -14.41,8.895 -5.56,1.781 -13.92,2.672 -25.14,2.672 h -18.75 z m 120.66,-16.23 v 16.23 h 8.33 c 6.34,0 10.29,0.75 11.82,2.242 1.53,1.5 2.28,5.199 2.28,11.074 v 84.36 c 0,5.801 -0.75,9.469 -2.28,10.929 -1.53,1.493 -5.48,2.243 -11.82,2.243 h -8.33 v 16.23 h 140.96 v -57.023 h -16.23 c -0.42,16.3 -3.1,27.195 -7.97,32.64 -4.92,5.446 -14.85,8.153 -29.83,8.153 h -34.39 V 635.27 h 8.12 c 8.97,0 14.84,1.562 17.65,4.664 2.78,3.093 4.53,10.214 5.2,21.39 l 16.23,0.106 v -71.867 l -16.23,0.109 c -0.64,12.277 -2.31,20.215 -5.12,23.777 -2.78,3.594 -8.62,5.371 -17.52,5.371 h -8.33 v -50.402 h 37.52 c 12.53,0 21.14,2.922 25.81,8.723 4.66,5.804 7.61,17.691 8.86,35.703 h 16.23 v -60.656 z m 352.15,0 v 16.23 h 9.61 c 6.34,0 10.25,0.75 11.78,2.242 1.53,1.5 2.32,5.164 2.32,11 v 92.586 l -46.21,-122.058 h -14.13 l -43.46,124.476 V 581.66 c 0,-5.836 0.75,-9.5 2.28,-11 1.53,-1.492 5.48,-2.242 11.82,-2.242 h 8.54 v -16.23 h -66.85 v 16.23 h 7.72 c 6.31,0 10.25,0.75 11.79,2.242 1.53,1.5 2.27,5.164 2.27,11 v 84.363 c 0,5.836 -0.74,9.504 -2.27,11 -1.54,1.493 -5.48,2.243 -11.79,2.243 h -7.72 v 16.23 h 66.63 l 31.93,-92.976 35.56,92.976 h 63.86 v -16.23 h -8.15 c -6.37,0 -10.36,-0.75 -11.93,-2.282 -1.56,-1.527 -2.34,-5.195 -2.34,-10.961 V 581.66 c 0,-5.765 0.78,-9.43 2.34,-10.961 1.57,-1.531 5.56,-2.281 11.93,-2.281 h 8.15 v -16.23 z m 120.28,71.761 c 0,-18.508 3.98,-32.926 12,-43.25 7.96,-10.32 19.04,-15.484 33.24,-15.484 14.17,0 25.21,5.164 33.18,15.449 7.94,10.289 11.92,24.703 11.92,43.285 0,18.508 -3.95,32.891 -11.89,43.141 -7.9,10.254 -18.97,15.379 -33.21,15.379 -14.2,0 -25.28,-5.125 -33.24,-15.379 -8.02,-10.25 -12,-24.633 -12,-43.141 z m -33.75,0 c 0,22.676 7.27,40.938 21.75,54.817 14.49,13.847 33.57,20.789 57.24,20.789 23.71,0 42.75,-6.942 57.21,-20.789 14.41,-13.879 21.64,-32.141 21.64,-54.817 0,-22.746 -7.23,-41.043 -21.72,-54.961 -14.45,-13.918 -33.49,-20.859 -57.13,-20.859 -23.67,0 -42.75,6.98 -57.24,20.898 -14.48,13.95 -21.75,32.25 -21.75,54.922 z m 316.09,-71.761 h -30.18 l -71.27,116.753 V 581.66 c 0,-5.836 0.79,-9.5 2.32,-11 1.53,-1.492 5.45,-2.242 11.78,-2.242 h 9.83 v -16.23 h -70.48 v 16.23 h 10.04 c 6.33,0 10.25,0.75 11.78,2.242 1.53,1.5 2.31,5.164 2.31,11 v 84.363 c 0,5.836 -0.78,9.504 -2.31,11 -1.53,1.493 -5.45,2.243 -11.78,2.243 h -9.22 v 16.23 h 61.32 l 63.44,-104.047 v 74.574 c 0,5.836 -0.75,9.504 -2.28,11 -1.53,1.493 -5.45,2.243 -11.75,2.243 h -10.1 v 16.23 h 67.7 v -16.23 h -6.87 c -6.41,0 -10.36,-0.75 -11.93,-2.282 -1.56,-1.527 -2.35,-5.195 -2.35,-10.961 z m 82.19,127.503 h -2.81 c -11.43,0 -19.76,-3.418 -24.95,-10.25 -5.2,-6.871 -7.9,-17.976 -8.12,-33.32 h -16.44 v 59.375 h 134.97 v -59.375 h -16.44 c -0.14,15.168 -2.81,26.199 -8.04,33.141 -5.2,6.941 -13.53,10.429 -24.92,10.429 h -3.13 V 581.66 c 0,-5.765 0.78,-9.43 2.35,-10.961 1.56,-1.531 5.55,-2.281 11.92,-2.281 h 12.21 v -16.23 h -83.08 v 16.23 h 12.42 c 6.3,0 10.26,0.75 11.78,2.242 1.54,1.5 2.28,5.164 2.28,11 z m 166.24,-64.925 -18.59,49.55 -16.87,-49.55 z m -93.3,-62.578 v 16.23 h 4.45 c 5.41,0 9.47,0.961 12.13,2.883 2.68,1.922 4.99,5.59 6.95,11.004 l 39.93,113.191 h 30.05 l 42.75,-113.191 c 2.42,-6.59 4.66,-10.575 6.73,-11.891 2.02,-1.316 5.55,-1.996 10.57,-1.996 h 4.27 v -16.23 h -74.15 v 16.23 h 11.57 c 4.67,0 7.83,0.395 9.47,1.211 1.6,0.785 2.42,2.242 2.42,4.344 0,0.746 -0.11,1.636 -0.36,2.597 -0.25,0.961 -0.74,2.457 -1.49,4.379 l -6.16,16.946 h -47.23 l -6.16,-18.086 c -0.14,-0.496 -0.39,-1.207 -0.71,-2.204 -0.71,-1.996 -1.07,-3.421 -1.07,-4.273 0,-1.887 0.68,-3.168 2.03,-3.883 1.35,-0.672 4.56,-1.031 9.54,-1.031 h 11.07 v -16.23 z m 224.07,113.835 c 0,5.836 -0.78,9.504 -2.31,11 -1.53,1.493 -5.45,2.243 -11.78,2.243 h -10.04 v 16.23 h 75.39 v -16.23 h -6.44 c -6.34,0 -10.25,-0.75 -11.79,-2.243 -1.53,-1.496 -2.27,-5.164 -2.27,-11 v -68.168 c 0,-10.285 -0.82,-18.082 -2.5,-23.351 -1.67,-5.301 -4.44,-9.93 -8.36,-13.988 -3.88,-4.024 -9.01,-7.118 -15.41,-9.325 -6.41,-2.171 -13.46,-3.273 -21.18,-3.273 -13.35,0 -24.24,3.348 -32.75,10.074 -8.47,6.692 -12.71,15.231 -12.71,25.594 0,6.656 1.78,11.887 5.38,15.66 3.55,3.809 8.47,5.695 14.7,5.695 5.01,0 9.11,-1.566 12.28,-4.699 3.2,-3.133 4.8,-7.117 4.8,-11.996 0,-4.734 -1.21,-8.543 -3.59,-11.426 -2.39,-2.882 -5.98,-4.91 -10.79,-6.086 2.74,-2.246 5.42,-3.847 8.12,-4.839 2.67,-1.036 5.62,-1.532 8.83,-1.532 8.26,0 14.06,2.098 17.4,6.297 3.35,4.203 5.02,11.926 5.02,23.106 z m 61.12,-113.835 v 16.23 h 8.33 c 6.33,0 10.28,0.75 11.81,2.242 1.54,1.5 2.28,5.199 2.28,11.074 v 84.36 c 0,5.801 -0.74,9.469 -2.28,10.929 -1.53,1.493 -5.48,2.243 -11.81,2.243 h -8.33 v 16.23 h 140.96 v -57.023 h -16.23 c -0.43,16.3 -3.1,27.195 -7.98,32.64 -4.91,5.446 -14.84,8.153 -29.83,8.153 h -34.38 V 635.27 h 8.11 c 8.97,0 14.85,1.562 17.66,4.664 2.78,3.093 4.52,10.214 5.19,21.39 l 16.24,0.106 v -71.867 l -16.24,0.109 c -0.64,12.277 -2.31,20.215 -5.12,23.777 -2.77,3.594 -8.61,5.371 -17.51,5.371 h -8.33 v -50.402 h 37.51 c 12.54,0 21.15,2.922 25.81,8.723 4.66,5.804 7.62,17.691 8.87,35.703 h 16.23 v -60.656 z m 165.7,0 v 59.16 h 16.66 c 2.27,-14.239 7.58,-25.129 15.87,-32.676 8.26,-7.547 19.01,-11.32 32.22,-11.32 9.53,0 16.83,1.605 21.85,4.808 5.05,3.203 7.58,7.793 7.58,13.844 0,5.445 -1.92,9.859 -5.8,13.242 -3.85,3.414 -10.04,6.086 -18.51,8.043 l -23.28,5.41 c -16.7,3.879 -28.69,9.149 -36.02,15.805 -7.34,6.625 -11,15.519 -11,26.629 0,13.488 4.7,24.308 14.09,32.426 9.37,8.152 21.93,12.211 37.66,12.211 7.76,0 15.06,-1.211 21.86,-3.598 6.76,-2.383 13.35,-6.086 19.75,-11.106 l 7.48,10.43 h 12.78 v -54.25 h -16.19 c -2.47,12.996 -7.59,23.102 -15.42,30.258 -7.8,7.156 -17.65,10.75 -29.48,10.75 -8.61,0 -15.3,-1.602 -20.03,-4.84 -4.74,-3.238 -7.09,-7.762 -7.09,-13.527 0,-4.875 1.68,-8.754 5.02,-11.676 3.35,-2.918 8.69,-5.231 16.05,-6.906 l 28.91,-6.653 c 15.31,-3.492 26.77,-8.937 34.35,-16.339 7.58,-7.407 11.35,-16.84 11.35,-28.301 0,-13.559 -4.98,-24.633 -14.91,-33.207 -9.97,-8.578 -22.85,-12.887 -38.73,-12.887 -7.97,0 -15.91,1.457 -23.78,4.379 -7.86,2.914 -15.8,7.402 -23.88,13.383 l -4.7,-13.492 h -14.66" /><path
         id="path44"
         style="fill:#ffffff;fill-opacity:1;fill-rule:nonzero;stroke:none"
         d="M 1172.55,917.625 C 1105.24,960.43 1053.99,1018.3 1023.05,1094.36 995.578,1019.99 947.105,963.477 880.645,921.273 826.281,886.746 759.938,862.09 683.289,845.238 c 78.566,-17.488 148.395,-44.617 205.453,-83.453 61.11,-41.597 107.426,-96.301 134.118,-166.515 29.36,70.898 77.91,126.835 140.29,169.101 54.77,37.106 120.1,63.488 192.26,80.067 -69.14,16.16 -130.76,40.054 -182.86,73.187" /><path
         id="path46"
         style="fill:#00ab40;fill-opacity:1;fill-rule:nonzero;stroke:none"
         d="m 987.906,825.25 h 18.184 c -1.37,-18.895 -7.188,-33.449 -17.406,-43.777 -10.219,-10.293 -24.036,-15.438 -41.45,-15.438 -10.394,0 -19.773,1.625 -28.195,4.867 -8.391,3.243 -15.894,8.172 -22.484,14.871 -7.297,7.227 -12.832,15.579 -16.567,25.024 -3.769,9.48 -5.64,19.633 -5.64,30.523 0,10.926 1.832,20.969 5.465,30.102 3.664,9.125 9.164,17.371 16.527,24.738 6.66,6.664 14.133,11.703 22.418,15.121 8.246,3.418 17.129,5.11 26.609,5.11 7.578,0 14.735,-1.2 21.43,-3.559 6.695,-2.394 13.289,-6.062 19.769,-10.996 l 4.266,12.652 h 15.258 v -58.152 h -16.281 c -1.653,13.566 -5.989,24.105 -13.039,31.543 -7.082,7.437 -16.176,11.172 -27.313,11.172 -13.008,0 -23.195,-5.18 -30.594,-15.578 -7.402,-10.399 -11.101,-24.778 -11.101,-43.176 0,-17.481 3.664,-30.977 11.031,-40.496 7.367,-9.551 17.73,-14.309 31.051,-14.309 10.398,0 18.82,3.383 25.273,10.188 6.446,6.765 10.711,16.633 12.789,29.57 z m 85.434,26.641 h 20.34 c 11.49,0 19.73,1.695 24.67,5.113 4.97,3.418 7.44,9.023 7.44,16.883 0,7.859 -2.26,13.465 -6.81,16.883 -4.54,3.418 -12.23,5.109 -23.05,5.109 h -22.59 z m 0,-65.766 h 23.44 c 12.13,0 20.76,1.941 25.9,5.781 5.19,3.879 7.76,10.223 7.76,19.102 0,8.883 -2.68,15.226 -8,18.965 -5.32,3.769 -14.53,5.636 -27.53,5.636 h -21.57 z m -52.02,-15.859 v 16.074 h 8.25 c 6.27,0 10.18,0.738 11.7,2.219 1.52,1.48 2.25,5.109 2.25,10.89 v 83.531 c 0,5.782 -0.73,9.411 -2.25,10.891 -1.52,1.481 -5.43,2.219 -11.7,2.219 h -8.25 v 16.074 h 81.87 c 17.73,0 30.92,-2.894 39.51,-8.672 8.6,-5.812 12.9,-14.699 12.9,-26.679 0,-8.25 -2.32,-14.946 -6.97,-19.985 -4.62,-5.074 -11.84,-8.848 -21.61,-11.312 11.49,-2.364 20.09,-6.559 25.76,-12.618 5.68,-6.031 8.53,-14.101 8.53,-24.144 0,-13.816 -4.72,-23.684 -14.13,-29.606 -9.45,-5.921 -25.45,-8.882 -48.04,-8.882 h -77.82" /><path
         id="path48"
         style="fill:#ffffff;fill-opacity:1;fill-rule:nonzero;stroke:none"
         d="m 2320.62,255.836 -20.4,62.519 c -1.41,4.348 -2.85,7.168 -4.32,8.458 -1.47,1.292 -3.54,1.921 -6.24,1.921 h -3.78 v 12.059 h 44.58 v -12.059 h -4.32 c -2.1,0 -3.6,-0.328 -4.5,-1.019 -0.93,-0.66 -1.38,-1.77 -1.38,-3.301 0,-0.629 0.15,-1.527 0.39,-2.73 0.27,-1.168 0.66,-2.61 1.2,-4.379 l 12.21,-41.848 15.12,42.297 c 0.39,1.051 0.72,2.101 0.96,3.121 0.24,1.02 0.36,1.918 0.36,2.672 0,1.949 -0.6,3.266 -1.77,4.047 -1.17,0.75 -3.27,1.14 -6.33,1.14 h -3.42 v 12.059 h 43.53 v -12.059 h -5.37 c -1.92,0 -3.36,-0.328 -4.26,-0.961 -0.9,-0.66 -1.35,-1.707 -1.35,-3.179 0,-0.809 0.09,-1.68 0.3,-2.637 0.21,-0.93 0.48,-1.891 0.84,-2.883 l 14.4,-44.519 13.26,40.89 c 0.57,1.707 1.05,3.328 1.35,4.891 0.33,1.559 0.48,2.852 0.48,3.898 0,1.348 -0.54,2.461 -1.62,3.27 -1.08,0.809 -2.46,1.23 -4.17,1.23 h -4.47 v 12.059 h 37.44 v -12.059 h -3.96 c -2.28,0 -4.17,-0.839 -5.67,-2.55 -1.5,-1.707 -2.97,-4.739 -4.44,-9.149 l -20.31,-61.199 h -21.24 l -15.3,47.578 -16.2,-47.578 z m 148.89,0 -20.4,62.519 c -1.41,4.348 -2.85,7.168 -4.32,8.458 -1.47,1.292 -3.54,1.921 -6.24,1.921 h -3.78 v 12.059 h 44.58 v -12.059 h -4.32 c -2.1,0 -3.6,-0.328 -4.5,-1.019 -0.93,-0.66 -1.38,-1.77 -1.38,-3.301 0,-0.629 0.15,-1.527 0.39,-2.73 0.27,-1.168 0.66,-2.61 1.2,-4.379 l 12.21,-41.848 15.12,42.297 c 0.39,1.051 0.72,2.101 0.96,3.121 0.24,1.02 0.36,1.918 0.36,2.672 0,1.949 -0.6,3.266 -1.77,4.047 -1.17,0.75 -3.27,1.14 -6.33,1.14 h -3.42 v 12.059 h 43.53 v -12.059 h -5.37 c -1.92,0 -3.36,-0.328 -4.26,-0.961 -0.9,-0.66 -1.35,-1.707 -1.35,-3.179 0,-0.809 0.09,-1.68 0.3,-2.637 0.21,-0.93 0.48,-1.891 0.84,-2.883 l 14.4,-44.519 13.26,40.89 c 0.57,1.707 1.05,3.328 1.35,4.891 0.33,1.559 0.48,2.852 0.48,3.898 0,1.348 -0.54,2.461 -1.62,3.27 -1.08,0.809 -2.46,1.23 -4.17,1.23 h -4.47 v 12.059 h 37.44 v -12.059 h -3.96 c -2.28,0 -4.17,-0.839 -5.67,-2.55 -1.5,-1.707 -2.97,-4.739 -4.44,-9.149 l -20.31,-61.199 h -21.24 l -15.3,47.578 -16.2,-47.578 z m 148.89,0 -20.4,62.519 c -1.41,4.348 -2.85,7.168 -4.32,8.458 -1.47,1.292 -3.54,1.921 -6.24,1.921 h -3.78 v 12.059 h 44.58 v -12.059 h -4.32 c -2.1,0 -3.6,-0.328 -4.5,-1.019 -0.93,-0.66 -1.38,-1.77 -1.38,-3.301 0,-0.629 0.15,-1.527 0.39,-2.73 0.27,-1.168 0.66,-2.61 1.2,-4.379 l 12.21,-41.848 15.12,42.297 c 0.39,1.051 0.72,2.101 0.96,3.121 0.24,1.02 0.36,1.918 0.36,2.672 0,1.949 -0.6,3.266 -1.77,4.047 -1.17,0.75 -3.27,1.14 -6.33,1.14 h -3.42 v 12.059 h 43.53 v -12.059 h -5.37 c -1.92,0 -3.36,-0.328 -4.26,-0.961 -0.9,-0.66 -1.35,-1.707 -1.35,-3.179 0,-0.809 0.09,-1.68 0.3,-2.637 0.21,-0.93 0.48,-1.891 0.84,-2.883 l 14.4,-44.519 13.26,40.89 c 0.57,1.707 1.05,3.328 1.35,4.891 0.33,1.559 0.48,2.852 0.48,3.898 0,1.348 -0.54,2.461 -1.62,3.27 -1.08,0.809 -2.46,1.23 -4.17,1.23 h -4.47 v 12.059 h 37.44 v -12.059 h -3.96 c -2.28,0 -4.17,-0.839 -5.67,-2.55 -1.5,-1.707 -2.97,-4.739 -4.44,-9.149 l -20.31,-61.199 h -21.24 l -15.3,47.578 -16.2,-47.578 z m 105.21,10.32 c 0,3.688 1.29,6.809 3.9,9.387 2.61,2.582 5.79,3.871 9.57,3.871 3.81,0 6.99,-1.258 9.54,-3.812 2.55,-2.547 3.81,-5.696 3.81,-9.446 0,-3.808 -1.26,-6.992 -3.81,-9.543 -2.55,-2.547 -5.73,-3.84 -9.54,-3.84 -3.78,0 -6.96,1.293 -9.57,3.872 -2.61,2.582 -3.9,5.73 -3.9,9.511 z m 114.3,24.957 h 13.86 c -0.63,-12.718 -4.14,-22.289 -10.47,-28.707 -6.3,-6.422 -15.48,-9.633 -27.48,-9.633 -13.41,0 -24.03,4.11 -31.86,12.301 -7.83,8.192 -11.73,19.258 -11.73,33.211 0,13.5 4.35,24.508 13.05,33 8.7,8.488 20.04,12.75 33.96,12.75 10.38,0 18.87,-2.488 25.5,-7.469 6.63,-4.949 9.93,-11.222 9.93,-18.753 0,-4.68 -1.29,-8.43 -3.9,-11.188 -2.61,-2.793 -6.12,-4.168 -10.53,-4.168 -3.93,0 -7.08,1.137 -9.42,3.387 -2.34,2.25 -3.51,5.281 -3.51,9.09 0,2.82 0.96,5.222 2.91,7.261 1.95,2.008 4.47,3.18 7.59,3.539 -2.7,2.219 -5.46,3.868 -8.28,4.891 -2.82,1.02 -5.97,1.531 -9.42,1.531 -7.32,0 -13.05,-2.972 -17.19,-8.883 -4.14,-5.937 -6.21,-14.191 -6.21,-24.808 0,-9.871 1.89,-17.25 5.64,-22.141 3.75,-4.89 9.39,-7.347 16.89,-7.347 6.09,0 10.86,1.8 14.25,5.425 3.39,3.602 5.55,9.184 6.42,16.711 z m 49.35,7.172 c 0,-10.98 1.95,-19.168 5.82,-24.601 3.87,-5.43 9.72,-8.129 17.58,-8.129 7.86,0 13.77,2.73 17.7,8.187 3.93,5.434 5.88,13.621 5.88,24.543 0,11.012 -1.95,19.258 -5.88,24.75 -3.93,5.488 -9.84,8.223 -17.7,8.223 -7.8,0 -13.64,-2.735 -17.55,-8.223 -3.9,-5.492 -5.85,-13.738 -5.85,-24.75 z m -24.48,0 c 0,13.801 4.35,24.903 13.08,33.238 8.73,8.34 20.34,12.512 34.8,12.512 14.52,0 26.16,-4.203 34.92,-12.57 8.76,-8.371 13.14,-19.438 13.14,-33.18 0,-13.711 -4.38,-24.719 -13.14,-33.031 -8.76,-8.309 -20.4,-12.481 -34.92,-12.481 -14.46,0 -26.07,4.172 -34.8,12.481 -8.73,8.312 -13.08,19.32 -13.08,33.031 z m 195.48,27.992 c 5.37,6.086 10.42,10.465 15.1,13.168 4.68,2.7 9.59,4.051 14.75,4.051 3.84,0 7.41,-0.601 10.71,-1.801 3.27,-1.203 5.94,-2.851 7.98,-4.98 2.16,-2.34 3.69,-5.098 4.62,-8.281 0.9,-3.211 1.35,-8.61 1.35,-16.231 v -33.508 c 0,-4.621 0.66,-7.59 2.01,-8.879 1.35,-1.293 4.08,-1.921 8.19,-1.921 h 5.1 v -12.059 h -49.14 v 12.059 h 1.95 c 4.17,0 6.96,0.66 8.37,1.98 1.41,1.32 2.11,4.262 2.11,8.82 v 33.508 c 0,6.902 -0.91,11.52 -2.68,13.891 -1.8,2.371 -4.98,3.539 -9.54,3.539 -5.49,0 -10.2,-2.25 -14.13,-6.746 -3.93,-4.504 -5.88,-10.114 -5.88,-16.832 v -27.36 c 0,-4.621 0.69,-7.59 2.07,-8.879 1.35,-1.293 4.09,-1.921 8.16,-1.921 h 2.19 v -12.059 h -46.26 v 12.059 h 2.01 c 4.15,0 6.9,0.66 8.31,1.98 1.41,1.32 2.1,4.262 2.1,8.82 v 33.508 c 0,6.902 -0.9,11.52 -2.73,13.891 -1.8,2.371 -4.98,3.539 -9.57,3.539 -5.48,0 -10.2,-2.25 -14.07,-6.746 -3.9,-4.504 -5.85,-10.114 -5.85,-16.832 v -27.36 c 0,-4.621 0.69,-7.59 2.07,-8.879 1.38,-1.293 4.14,-1.921 8.25,-1.921 h 2.1 v -12.059 h -50.03 v 12.059 h 5.99 c 4.11,0 6.84,0.628 8.19,1.921 1.35,1.289 2.01,4.258 2.01,8.879 v 39.301 c 0,4.649 -0.66,7.586 -2.01,8.848 -1.35,1.261 -4.08,1.89 -8.19,1.89 h -5.99 v 12.059 h 37.61 v -14.34 c 4.62,5.973 9.27,10.289 13.95,12.992 4.65,2.7 9.78,4.051 15.42,4.051 5.79,0 10.65,-1.441 14.55,-4.293 3.9,-2.879 6.84,-7.199 8.85,-12.926 z m 139.51,-16.98 c -0.55,7.855 -2.14,13.59 -4.81,17.215 -2.67,3.633 -6.6,5.465 -11.76,5.465 -5.28,0 -9.57,-1.922 -12.9,-5.762 -3.3,-3.84 -5.49,-9.481 -6.57,-16.918 z m 8.09,-23.039 h 15.12 c -1.29,-10.442 -5.46,-18.664 -12.51,-24.664 -7.08,-6 -16.11,-9 -27.12,-9 -13.68,0 -24.63,4.14 -32.76,12.422 -8.13,8.308 -12.21,19.379 -12.21,33.269 0,13.68 4.11,24.75 12.36,33.149 8.22,8.398 19.11,12.601 32.64,12.601 13.05,0 23.01,-4.051 29.85,-12.18 6.87,-8.101 10.29,-19.89 10.29,-35.339 h -60.66 c 0.36,-9.602 2.4,-16.922 6.12,-21.961 3.72,-5.039 8.94,-7.559 15.69,-7.559 6.9,0 12.12,1.469 15.69,4.438 3.54,2.968 6.03,7.89 7.5,14.824 z m 63.57,-7.563 c 0,-4.621 0.69,-7.59 2.07,-8.879 1.38,-1.293 4.11,-1.921 8.2,-1.921 h 9 v -12.059 h -57.25 v 12.059 h 6 c 4.11,0 6.84,0.628 8.19,1.921 1.35,1.289 2.01,4.258 2.01,8.879 v 39.301 c 0,4.649 -0.66,7.586 -2.01,8.848 -1.35,1.261 -4.08,1.89 -8.19,1.89 h -6 v 12.059 h 37.98 v -12.75 c 2.82,5.012 6.09,8.793 9.84,11.312 3.75,2.52 7.98,3.782 12.66,3.782 6.42,0 11.67,-1.801 15.72,-5.403 4.05,-3.597 6.06,-8.277 6.06,-14.039 0,-4.5 -1.35,-8.191 -4.05,-11.039 -2.7,-2.851 -6.21,-4.261 -10.56,-4.261 -3.69,0 -6.66,1.046 -8.97,3.121 -2.28,2.07 -3.42,4.765 -3.42,8.039 0,3 0.93,5.519 2.82,7.59 1.89,2.097 4.62,3.628 8.19,4.617 -1.35,0.601 -2.64,1.054 -3.9,1.355 -1.26,0.328 -2.43,0.477 -3.48,0.477 -5.96,0 -10.95,-3 -14.94,-9 -3.99,-6 -5.97,-13.68 -5.97,-23.039 z m 120.06,12.418 h 13.87 c -0.64,-12.718 -4.15,-22.289 -10.48,-28.707 -6.3,-6.422 -15.48,-9.633 -27.47,-9.633 -13.41,0 -24.04,4.11 -31.87,12.301 -7.83,8.192 -11.73,19.258 -11.73,33.211 0,13.5 4.35,24.508 13.05,33 8.7,8.488 20.04,12.75 33.96,12.75 10.38,0 18.88,-2.488 25.5,-7.469 6.63,-4.949 9.93,-11.222 9.93,-18.753 0,-4.68 -1.29,-8.43 -3.9,-11.188 -2.61,-2.793 -6.12,-4.168 -10.53,-4.168 -3.93,0 -7.07,1.137 -9.42,3.387 -2.33,2.25 -3.51,5.281 -3.51,9.09 0,2.82 0.97,5.222 2.91,7.261 1.95,2.008 4.47,3.18 7.59,3.539 -2.69,2.219 -5.46,3.868 -8.28,4.891 -2.82,1.02 -5.97,1.531 -9.41,1.531 -7.32,0 -13.06,-2.972 -17.2,-8.883 -4.14,-5.937 -6.21,-14.191 -6.21,-24.808 0,-9.871 1.89,-17.25 5.64,-22.141 3.75,-4.89 9.39,-7.347 16.89,-7.347 6.09,0 10.86,1.8 14.25,5.425 3.39,3.602 5.56,9.184 6.42,16.711 z m 24.34,-35.277 v 12.059 h 6.65 c 4.08,0 6.81,0.628 8.2,1.921 1.37,1.289 2.07,4.258 2.07,8.879 v 39.301 c 0,4.649 -0.7,7.586 -2.07,8.848 -1.39,1.261 -4.12,1.89 -8.2,1.89 h -6.65 v 12.059 h 38.88 v -62.098 c 0,-4.558 0.68,-7.5 2.07,-8.82 1.38,-1.32 4.13,-1.98 8.31,-1.98 h 5.46 v -12.059 z m 12.96,108.898 c 0,3.75 1.28,6.903 3.84,9.45 2.55,2.578 5.69,3.871 9.44,3.871 3.82,0 7.02,-1.293 9.63,-3.871 2.62,-2.547 3.91,-5.7 3.91,-9.45 0,-3.75 -1.29,-6.929 -3.91,-9.57 -2.61,-2.609 -5.81,-3.93 -9.63,-3.93 -3.71,0 -6.84,1.321 -9.41,3.93 -2.59,2.641 -3.87,5.82 -3.87,9.57 z m 105.3,-64.437 c -2.46,-1.172 -5.86,-2.645 -10.2,-4.473 -13.35,-5.789 -20.05,-11.726 -20.05,-17.82 0,-3.301 0.96,-5.82 2.92,-7.621 1.92,-1.766 4.68,-2.668 8.24,-2.668 5.86,0 10.5,1.98 13.95,5.941 3.43,3.961 5.14,9.418 5.14,16.41 z m 0.36,-34.172 c -3.57,-4.621 -7.74,-8.039 -12.49,-10.23 -4.74,-2.188 -10.28,-3.301 -16.67,-3.301 -7.56,0 -13.74,2.16 -18.54,6.511 -4.8,4.321 -7.2,9.899 -7.2,16.68 0,6.512 2.04,11.789 6.15,15.809 4.07,4.051 11.1,7.59 21.06,10.648 2.33,0.754 6.15,1.774 11.43,3.063 5.24,1.289 8.76,2.488 10.44,3.601 2.18,1.407 3.71,2.996 4.62,4.797 0.89,1.801 1.38,4.02 1.38,6.723 0,4.41 -1.63,7.769 -4.81,10.137 -3.18,2.371 -7.77,3.574 -13.73,3.574 -3.88,0 -7.17,-0.422 -9.9,-1.293 -2.74,-0.84 -5.14,-2.16 -7.26,-3.989 h 0.62 c 3.52,0 6.28,-0.871 8.29,-2.578 2.01,-1.742 3.03,-4.172 3.03,-7.261 0,-3.453 -1.15,-6.243 -3.46,-8.344 -2.3,-2.129 -5.37,-3.176 -9.18,-3.176 -4.19,0 -7.64,1.289 -10.34,3.899 -2.68,2.609 -4.02,6 -4.02,10.14 0,6.692 3.17,12.117 9.54,16.262 6.32,4.168 14.82,6.238 25.41,6.238 6.02,0 11.36,-0.539 16.02,-1.59 4.64,-1.05 8.45,-2.582 11.45,-4.562 3.46,-2.278 5.89,-5.188 7.3,-8.699 1.41,-3.508 2.09,-9.36 2.09,-17.551 v -37.766 c 0,-2.101 0.33,-3.664 1.03,-4.652 0.66,-0.988 1.7,-1.5 3.12,-1.5 2.15,0 3.62,1.14 4.4,3.422 0.75,2.304 1.15,7.769 1.15,16.379 h 11.01 v -3.782 c 0,-11.039 -1.75,-18.961 -5.23,-23.847 -3.5,-4.864 -9.2,-7.293 -17.12,-7.293 -5.31,0 -9.61,1.113 -12.79,3.301 -3.21,2.191 -5.46,5.609 -6.8,10.23 z m 62.25,87.629 c 0,4.562 -0.7,7.5 -2.07,8.82 -1.38,1.321 -4.18,1.981 -8.4,1.981 h -5.37 v 12.062 h 37.8 v -97.922 c 0,-4.558 0.68,-7.5 2.09,-8.82 1.41,-1.32 4.21,-1.98 8.38,-1.98 h 5.37 v -12.059 h -53.64 v 12.059 h 5.37 c 4.22,0 7.02,0.66 8.4,1.98 1.37,1.32 2.07,4.262 2.07,8.82 z m 118.41,-55.617 c 0,10.199 -1.68,17.785 -5.07,22.765 -3.36,4.981 -8.53,7.473 -15.45,7.473 -6.39,0 -11.44,-2.668 -15.07,-8.012 -3.63,-5.308 -5.45,-12.75 -5.45,-22.226 0,-9.512 1.82,-16.953 5.48,-22.321 3.7,-5.402 8.7,-8.101 15.04,-8.101 6.92,0 12.09,2.519 15.45,7.558 3.39,5.043 5.07,12.661 5.07,22.864 z m -43.78,-31.293 -7.2,-11.879 h -11.84 v 98.758 c 0,4.652 -0.66,7.593 -2.02,8.882 -1.34,1.29 -4.11,1.95 -8.24,1.95 h -3.78 v 12.062 h 35.82 v -49.113 c 3.32,5.699 7.38,9.902 12.09,12.539 4.7,2.672 10.43,3.992 17.18,3.992 11.16,0 19.98,-4.051 26.5,-12.18 6.5,-8.101 9.75,-19.171 9.75,-33.242 0,-14.039 -3.31,-25.199 -9.94,-33.449 -6.63,-8.25 -15.56,-12.391 -26.81,-12.391 -6.45,0 -12.28,1.141 -17.44,3.422 -5.15,2.278 -9.83,5.852 -14.07,10.649 z m 78.9,-11.008 v 12.059 h 6.66 c 4.08,0 6.81,0.628 8.19,1.921 1.38,1.289 2.08,4.258 2.08,8.879 v 39.301 c 0,4.649 -0.7,7.586 -2.08,8.848 -1.38,1.261 -4.11,1.89 -8.19,1.89 h -6.66 v 12.059 h 38.88 v -62.098 c 0,-4.558 0.69,-7.5 2.07,-8.82 1.39,-1.32 4.14,-1.98 8.31,-1.98 h 5.47 v -12.059 z m 12.97,108.898 c 0,3.75 1.28,6.903 3.84,9.45 2.55,2.578 5.69,3.871 9.44,3.871 3.81,0 7.02,-1.293 9.63,-3.871 2.61,-2.547 3.91,-5.7 3.91,-9.45 0,-3.75 -1.3,-6.929 -3.91,-9.57 -2.61,-2.609 -5.82,-3.93 -9.63,-3.93 -3.71,0 -6.84,1.321 -9.41,3.93 -2.59,2.641 -3.87,5.82 -3.87,9.57 z m 122.76,-66.597 c 0,10.199 -1.69,17.785 -5.08,22.765 -3.36,4.981 -8.52,7.473 -15.45,7.473 -6.39,0 -11.43,-2.668 -15.05,-8.012 -3.64,-5.308 -5.47,-12.75 -5.47,-22.226 0,-9.512 1.83,-16.953 5.49,-22.321 3.69,-5.402 8.7,-8.101 15.03,-8.101 6.93,0 12.09,2.519 15.45,7.558 3.39,5.043 5.08,12.661 5.08,22.864 z m -43.78,-31.293 -7.2,-11.879 h -11.85 v 98.758 c 0,4.652 -0.66,7.593 -2,8.882 -1.36,1.29 -4.11,1.95 -8.25,1.95 h -3.79 v 12.062 h 35.82 v -49.113 c 3.33,5.699 7.38,9.902 12.09,12.539 4.71,2.672 10.45,3.992 17.2,3.992 11.16,0 19.97,-4.051 26.48,-12.18 6.52,-8.101 9.75,-19.171 9.75,-33.242 0,-14.039 -3.3,-25.199 -9.93,-33.449 -6.62,-8.25 -15.57,-12.391 -26.82,-12.391 -6.45,0 -12.27,1.141 -17.43,3.422 -5.16,2.278 -9.84,5.852 -14.07,10.649 z m 78.91,-11.008 v 12.059 h 6.65 c 4.08,0 6.81,0.628 8.19,1.921 1.38,1.289 2.07,4.258 2.07,8.879 v 39.301 c 0,4.649 -0.69,7.586 -2.07,8.848 -1.38,1.261 -4.11,1.89 -8.19,1.89 h -6.65 v 12.059 h 38.87 v -62.098 c 0,-4.558 0.69,-7.5 2.08,-8.82 1.37,-1.32 4.13,-1.98 8.3,-1.98 h 5.46 v -12.059 z m 12.96,108.898 c 0,3.75 1.29,6.903 3.83,9.45 2.55,2.578 5.7,3.871 9.45,3.871 3.81,0 7.02,-1.293 9.63,-3.871 2.61,-2.547 3.9,-5.7 3.9,-9.45 0,-3.75 -1.29,-6.929 -3.9,-9.57 -2.61,-2.609 -5.82,-3.93 -9.63,-3.93 -3.72,0 -6.84,1.321 -9.42,3.93 -2.57,2.641 -3.86,5.82 -3.86,9.57 z m 105.29,-64.437 c -2.46,-1.172 -5.85,-2.645 -10.2,-4.473 -13.35,-5.789 -20.03,-11.726 -20.03,-17.82 0,-3.301 0.96,-5.82 2.91,-7.621 1.91,-1.766 4.68,-2.668 8.24,-2.668 5.85,0 10.5,1.98 13.95,5.941 3.42,3.961 5.13,9.418 5.13,16.41 z m 0.36,-34.172 c -3.56,-4.621 -7.74,-8.039 -12.48,-10.23 -4.74,-2.188 -10.29,-3.301 -16.68,-3.301 -7.56,0 -13.74,2.16 -18.54,6.511 -4.8,4.321 -7.2,9.899 -7.2,16.68 0,6.512 2.04,11.789 6.15,15.809 4.08,4.051 11.1,7.59 21.07,10.648 2.33,0.754 6.14,1.774 11.43,3.063 5.25,1.289 8.75,2.488 10.43,3.601 2.19,1.407 3.72,2.996 4.62,4.797 0.9,1.801 1.39,4.02 1.39,6.723 0,4.41 -1.62,7.769 -4.81,10.137 -3.18,2.371 -7.77,3.574 -13.74,3.574 -3.87,0 -7.16,-0.422 -9.89,-1.293 -2.74,-0.84 -5.14,-2.16 -7.27,-3.989 h 0.64 c 3.5,0 6.27,-0.871 8.27,-2.578 2.02,-1.742 3.04,-4.172 3.04,-7.261 0,-3.453 -1.15,-6.243 -3.46,-8.344 -2.31,-2.129 -5.37,-3.176 -9.18,-3.176 -4.2,0 -7.65,1.289 -10.35,3.899 -2.67,2.609 -4.01,6 -4.01,10.14 0,6.692 3.17,12.117 9.53,16.262 6.33,4.168 14.82,6.238 25.41,6.238 6.03,0 11.37,-0.539 16.02,-1.59 4.65,-1.05 8.46,-2.582 11.46,-4.562 3.45,-2.278 5.88,-5.188 7.29,-8.699 1.41,-3.508 2.11,-9.36 2.11,-17.551 v -37.766 c 0,-2.101 0.32,-3.664 1.01,-4.652 0.67,-0.988 1.71,-1.5 3.13,-1.5 2.16,0 3.62,1.14 4.4,3.422 0.75,2.304 1.14,7.769 1.14,16.379 h 11.01 v -3.782 c 0,-11.039 -1.73,-18.961 -5.22,-23.847 -3.51,-4.864 -9.21,-7.293 -17.13,-7.293 -5.31,0 -9.6,1.113 -12.78,3.301 -3.21,2.191 -5.46,5.609 -6.81,10.23 z m 46.78,-10.289 v 12.059 h 5.99 c 4.11,0 6.84,0.628 8.19,1.921 1.36,1.289 2.02,4.258 2.02,8.879 v 39.301 c 0,4.649 -0.66,7.586 -2.02,8.848 -1.35,1.261 -4.08,1.89 -8.19,1.89 h -5.99 v 12.059 h 37.97 v -14.879 c 4.68,5.879 9.51,10.262 14.46,13.199 4.95,2.91 9.99,4.383 15.09,4.383 9.79,0 16.8,-2.402 21.09,-7.199 4.29,-4.805 6.43,-12.844 6.43,-24.094 v -33.508 c 0,-4.621 0.68,-7.59 2.03,-8.879 1.38,-1.293 4.11,-1.921 8.19,-1.921 h 5.26 v -12.059 h -51.12 v 12.059 h 3.6 c 4.07,0 6.81,0.628 8.18,1.921 1.39,1.289 2.07,4.258 2.07,8.879 v 33.508 c 0,6.238 -1.05,10.711 -3.12,13.41 -2.07,2.672 -5.48,4.02 -10.23,4.02 -6.77,0 -12.11,-2.578 -16.05,-7.707 -3.93,-5.16 -5.88,-12.242 -5.88,-21.242 v -21.989 c 0,-4.621 0.69,-7.59 2.07,-8.879 1.38,-1.293 4.11,-1.921 8.19,-1.921 h 3.61 v -12.059 z m 143.24,42.449 c 0,-10.98 1.96,-19.168 5.82,-24.601 3.87,-5.43 9.73,-8.129 17.59,-8.129 7.85,0 13.76,2.73 17.69,8.187 3.93,5.434 5.89,13.621 5.89,24.543 0,11.012 -1.96,19.258 -5.89,24.75 -3.93,5.488 -9.84,8.223 -17.69,8.223 -7.81,0 -13.65,-2.735 -17.56,-8.223 -3.89,-5.492 -5.85,-13.738 -5.85,-24.75 z m -24.47,0 c 0,13.801 4.34,24.903 13.07,33.238 8.73,8.34 20.34,12.512 34.81,12.512 14.51,0 26.16,-4.203 34.91,-12.57 8.76,-8.371 13.14,-19.438 13.14,-33.18 0,-13.711 -4.38,-24.719 -13.14,-33.031 -8.75,-8.309 -20.4,-12.481 -34.91,-12.481 -14.47,0 -26.08,4.172 -34.81,12.481 -8.73,8.312 -13.07,19.32 -13.07,33.031 z m 112.38,-32.129 c 0,3.688 1.29,6.809 3.89,9.387 2.61,2.582 5.8,3.871 9.57,3.871 3.82,0 7,-1.258 9.55,-3.812 2.55,-2.547 3.81,-5.696 3.81,-9.446 0,-3.808 -1.26,-6.992 -3.81,-9.543 -2.55,-2.547 -5.73,-3.84 -9.55,-3.84 -3.77,0 -6.96,1.293 -9.57,3.872 -2.6,2.582 -3.89,5.73 -3.89,9.511 z m 108,43.141 c -0.54,7.855 -2.13,13.59 -4.81,17.215 -2.66,3.633 -6.59,5.465 -11.75,5.465 -5.28,0 -9.58,-1.922 -12.91,-5.762 -3.29,-3.84 -5.48,-9.481 -6.57,-16.918 z m 8.1,-23.039 h 15.11 c -1.29,-10.442 -5.45,-18.664 -12.5,-24.664 -7.09,-6 -16.11,-9 -27.13,-9 -13.67,0 -24.62,4.14 -32.76,12.422 -8.13,8.308 -12.2,19.379 -12.2,33.269 0,13.68 4.11,24.75 12.36,33.149 8.21,8.398 19.1,12.601 32.64,12.601 13.05,0 23,-4.051 29.84,-12.18 6.87,-8.101 10.3,-19.89 10.3,-35.339 h -60.66 c 0.36,-9.602 2.4,-16.922 6.11,-21.961 3.72,-5.039 8.95,-7.559 15.7,-7.559 6.89,0 12.12,1.469 15.68,4.438 3.55,2.968 6.03,7.89 7.51,14.824 z m 27.03,-31.473 v 34.711 h 13.13 c 1.72,-7.742 5.01,-13.68 9.97,-17.789 4.94,-4.113 11.18,-6.152 18.66,-6.152 4.59,0 8.25,1.019 10.98,3.031 2.75,2.039 4.14,4.738 4.14,8.16 0,2.699 -1.12,4.859 -3.34,6.539 -2.21,1.68 -6.14,3.207 -11.76,4.621 l -13.34,3.176 c -9.34,2.281 -16.27,5.582 -20.77,9.871 -4.52,4.293 -6.77,9.75 -6.77,16.383 0,7.949 3.02,14.398 9.05,19.32 6.03,4.918 14.02,7.379 23.92,7.379 4.67,0 9.11,-0.722 13.35,-2.129 4.22,-1.441 8.31,-3.601 12.3,-6.511 l 3.95,6.66 h 10.32 v -31.5 h -12.23 c -1.84,6.511 -5.04,11.609 -9.66,15.238 -4.62,3.633 -10.18,5.465 -16.59,5.465 -4.29,0 -7.66,-0.903 -10.09,-2.703 -2.43,-1.77 -3.62,-4.262 -3.62,-7.442 0,-2.277 0.8,-4.168 2.45,-5.668 1.62,-1.5 4.17,-2.672 7.63,-3.48 l 16.35,-3.781 c 10.55,-2.52 18.23,-6 23.03,-10.438 4.83,-4.473 7.23,-10.262 7.23,-17.402 0,-8.551 -3.05,-15.27 -9.14,-20.188 -6.09,-4.922 -14.5,-7.383 -25.23,-7.383 -5.34,0 -10.27,0.75 -14.77,2.223 -4.53,1.5 -9.18,3.93 -13.97,7.317 l -3.28,-7.528 h -11.9" /></g></g></svg>